<svg width="167" height="36" xmlns="http://www.w3.org/2000/svg"><g fill="none" fill-rule="evenodd"><g fill="#fff" fill-rule="nonzero"><path d="M34.9036 15.8639h-10.996c-.8314-3.2285-3.9275-5.3335-7.2266-4.9133-3.2992.4201-5.772 3.2343-5.772 6.5687 0 3.3343 2.4728 6.1485 5.772 6.5686 3.2991.4202 6.3952-1.6848 7.2266-4.9133h7.6278c-.713 6.1758-5.358 11.1643-11.4542 12.3014-6.0963 1.1371-12.2198-1.8428-15.1004-7.3483-2.8806-5.5054-1.8454-12.2505 2.5528-16.633 4.3981-4.3826 11.1319-5.3789 16.6051-2.4569-.885 2.4736.148 5.2258 2.44 6.5008 2.2919 1.275 5.1676.6972 6.7926-1.3648 1.625-2.062 1.5205-5.0007-.2468-6.9414-1.7674-1.9407-4.6769-2.3117-6.8724-.8763C19.3922-1.6148 10.7275-.471 5.1264 5.1446c-5.601 5.6157-6.7418 14.303-2.7813 21.1809 3.9605 6.8778 12.0347 10.231 19.6859 8.1757 7.6512-2.0555 12.9716-9.007 12.9717-16.9488 0-.6622-.033-1.225-.0991-1.6885zm-17.402 4.966c-1.8238 0-3.3022-1.4822-3.3022-3.3106 0-1.8285 1.4784-3.3108 3.3021-3.3108 1.8237 0 3.3021 1.4823 3.3021 3.3108 0 1.8284-1.4784 3.3107-3.302 3.3107zM29.1578 4.8724c.8014 0 1.5238.484 1.8305 1.2262a1.9902 1.9902 0 0 1-.4295 2.1648 1.9775 1.9775 0 0 1-2.1592.4306c-.7403-.3074-1.223-1.0317-1.223-1.8352 0-1.097.887-1.9864 1.9812-1.9864zM69.118 17.2317a.4209.4209 0 0 1 0 .2999.6265.6265 0 0 1-.329 0 25.8059 25.8059 0 0 1-3.978.2999 8.9503 8.9503 0 0 1-1.9143-.18 4.54 4.54 0 0 1-1.4955-.6297 2.7577 2.7577 0 0 1-1.0468-1.3195 5.7412 5.7412 0 0 1-.359-2.1591V6.3761a5.7713 5.7713 0 0 1 .359-2.1592 2.7277 2.7277 0 0 1 1.0468-1.3194 4.54 4.54 0 0 1 1.4955-.6298 8.9503 8.9503 0 0 1 1.9142-.18 25.8059 25.8059 0 0 1 3.978.3.6265.6265 0 0 1 .329 0 .4209.4209 0 0 1 0 .2998V4.037a.4193.4193 0 0 1-.4187.4198H64.452a1.7317 1.7317 0 0 0-1.2861.3899 2.0733 2.0733 0 0 0-.359 1.4094v2.2491h5.653c.2313 0 .4188.188.4188.4198v1.4994a.4193.4193 0 0 1-.4188.4199h-5.653v2.6989a2.0734 2.0734 0 0 0 .359 1.5894c.359.2978.8226.4383 1.2861.3898h4.2472c.2313 0 .4187.188.4187.4198v1.2895zM81.1417 17.2317a.4209.4209 0 0 1 0 .2999.6265.6265 0 0 1-.329 0 25.776 25.776 0 0 1-3.978.2999 8.9503 8.9503 0 0 1-1.9143-.18 4.5698 4.5698 0 0 1-1.4955-.6297 2.7577 2.7577 0 0 1-1.0468-1.3195 5.7412 5.7412 0 0 1-.359-2.1591V6.3761a5.7412 5.7412 0 0 1 .359-2.1592c.203-.5385.5691-1 1.0468-1.3194a4.5698 4.5698 0 0 1 1.4955-.6298 8.9503 8.9503 0 0 1 1.9143-.18 25.8059 25.8059 0 0 1 3.978.3.6265.6265 0 0 1 .329 0 .4209.4209 0 0 1 0 .2998V4.037a.4204.4204 0 0 1-.1227.2969.4182.4182 0 0 1-.296.123h-4.2473a1.7317 1.7317 0 0 0-1.286.3898 2.0733 2.0733 0 0 0-.359 1.4094v2.2491h5.653c.2312 0 .4187.188.4187.4198v1.4994a.4193.4193 0 0 1-.4187.4199h-5.653v2.6989c-.0544.4979.073.9987.359 1.4094.359.298.8225.4384 1.286.3899h4.2472c.2313 0 .4188.188.4188.4198v1.4694zM93.5842 3.857h-4.0678v13.5247a.451.451 0 0 1 0 .2998.3282.3282 0 0 1-.2692 0H87.991a.3282.3282 0 0 1-.2692 0 .451.451 0 0 1 0-.2998V3.857h-4.1873a.5072.5072 0 0 1-.2991 0 .2705.2705 0 0 1 0-.24v-.8996a.3307.3307 0 0 1 0-.2699.4475.4475 0 0 1 .299 0h10.0498c.2592 0 .3888.12.3888.3599v.8996c0 .1-.1296.15-.3888.15zM104.7106 17.7415a.2387.2387 0 0 1-.1495 0h-4.0976a5.224 5.224 0 0 1-3.32-.8996 3.6339 3.6339 0 0 1-1.1067-2.9988V6.136a3.6339 3.6339 0 0 1 1.1066-2.9987 5.224 5.224 0 0 1 3.32-.8997h4.2173a.2387.2387 0 0 1 .1496 0 .3608.3608 0 0 1 0 .18v1.0495c0 .18 0 .24-.2393.24h-4.0678a6.1753 6.1753 0 0 0-1.3459 0 1.6135 1.6135 0 0 0-.7777.3898 1.3205 1.3205 0 0 0-.3589.6597 4.6295 4.6295 0 0 0-.1794 1.3795V9.135h6.4007a.3879.3879 0 0 1 .299 0 .3908.3908 0 0 1 0 .2998v.7797a.3908.3908 0 0 1 0 .3.3879.3879 0 0 1-.299 0h-6.4007v3.5385a4.6903 4.6903 0 0 0 0 1.0196c.0478.2608.1728.5012.3589.6897.2188.1988.4878.3336.7776.3899.4474.049.8987.049 1.346 0h4.0378c.1496 0 .2393 0 .2393.2399v1.0795a.3605.3605 0 0 1 .0897.27zM116.0464 13.7831a5.0498 5.0498 0 0 1-.2392 1.3495 3.3303 3.3303 0 0 1-.8076 1.3494 4.1853 4.1853 0 0 1-1.5852.9596 7.3104 7.3104 0 0 1-2.5424.3899c-.6475.036-1.2965.036-1.9441 0l-1.5254-.21a.5669.5669 0 0 1-.329 0 .4209.4209 0 0 1 0-.2398v-.9297a.3006.3006 0 0 1 0-.2399.3879.3879 0 0 1 .2393 0h3.4396a5.6986 5.6986 0 0 0 1.5553-.1799 2.3908 2.3908 0 0 0 .9571-.5098c.236-.2097.4115-.479.5085-.7797a3.3072 3.3072 0 0 0 0-1.0196 1.9542 1.9542 0 0 0 0-.7197 2.0096 2.0096 0 0 0-.4187-.6297 5.1842 5.1842 0 0 0-.5384-.6298l-1.1964-.7797-2.0339-1.2295a8.3793 8.3793 0 0 1-2.1535-1.7693 3.3043 3.3043 0 0 1-.7178-2.1591 3.1819 3.1819 0 0 1 1.2562-2.669 6.477 6.477 0 0 1 3.7088-.8996h3.6191c.2393 0 .359.15.359.3599v.8996c0 .22-.1197.3299-.359.3299h-3.5892a4.9238 4.9238 0 0 0-2.3629.4198 1.651 1.651 0 0 0-.7178 1.5594 1.6536 1.6536 0 0 0 0 .6897c.105.222.2466.4248.4187.5998.217.2252.4578.4263.7179.5997l1.017.6598 1.9141 1.1395c.5333.3122 1.0431.663 1.5254 1.0496a6.5888 6.5888 0 0 1 1.017 1.0196c.2532.3111.446.6671.5683 1.0496.1378.3756.2185.7698.2392 1.1695zM127.9805 3.857h-4.0678v13.5247a.451.451 0 0 1 0 .2998.3282.3282 0 0 1-.2692 0h-1.2562a.3282.3282 0 0 1-.2692 0 .451.451 0 0 1 0-.2998V3.857h-4.1574a.5072.5072 0 0 1-.2991 0 .2705.2705 0 0 1 0-.24v-.8996a.3307.3307 0 0 1 0-.2699.4475.4475 0 0 1 .299 0h10.0498c.2692 0 .3888 0 .3888.3599v.8996c0 .06-.1496.15-.4187.15zM50.0056 5.5364a2.9869 2.9869 0 0 1 2.333-.9296 5.9705 5.9705 0 0 1 3.4396.9896.388.388 0 0 0 .5084 0l.7777-1.0796c0-.18.1794-.3898 0-.5698a7.9424 7.9424 0 0 0-5.0548-1.6793 6.2363 6.2363 0 0 0-2.004.3299 5.9779 5.9779 0 0 0-1.7945 1.0196 4.7984 4.7984 0 0 0-1.3759 2.0092 8.2961 8.2961 0 0 0-.5084 2.9988v2.9988a8.417 8.417 0 0 0 .3589 2.579 5.4327 5.4327 0 0 0 .957 1.8292 5.7411 5.7411 0 0 0 2.8415 1.8293c.56.122 1.1317.1824 1.7049.1799a9.4005 9.4005 0 0 0 4.307-.8697.6899.6899 0 0 0 .3888-.6297V9.135a.3908.3908 0 0 0 0-.3.3879.3879 0 0 0-.299 0h-4.337a.4193.4193 0 0 0-.4187.42v1.4993c0 .2319.1874.4198.4187.4198h1.7348v3.9585a5.1322 5.1322 0 0 1-1.7348.2699 2.9867 2.9867 0 0 1-2.2432-.8697 4.5971 4.5971 0 0 1-.8076-2.9988V8.5352a4.7474 4.7474 0 0 1 .8076-2.9988z"/></g><path d="M50.688 24.232h.624c1.512 1.584 3.252 2.82 5.22 3.732l-.432.768c-1.992-.96-3.684-2.196-5.1-3.72-1.308 1.452-3.024 2.712-5.148 3.78l-.42-.756c2.112-1.02 3.864-2.292 5.256-3.804zm-3.036 3.792h6.696v.828h-2.904v2.088h3.468v.828h-3.468v2.22h4.56v.852h-9.996v-.852h4.548v-2.22h-3.48v-.828h3.48v-2.088h-2.904v-.828zm15.744-1.752h2.724V24.22h.84v2.052H69c-.384-.456-.864-.924-1.464-1.416l.504-.48c.6.468 1.116.936 1.524 1.404l-.48.492h.72v.84H66.96v1.152c.18.576.396 1.128.636 1.656.552-.588 1.044-1.248 1.488-1.98l.648.48c-.576.888-1.164 1.632-1.752 2.232.6 1.104 1.368 2.076 2.304 2.904l-.564.672c-1.176-1.128-2.1-2.496-2.76-4.092v3.96c0 .66-.348.996-1.02.996h-1.32l-.168-.816c.408.036.816.06 1.2.06.312 0 .468-.156.468-.444v-3c-.792 1.164-1.716 2.136-2.76 2.928l-.444-.744c1.212-.816 2.28-1.944 3.204-3.36v-2.604h-2.724v-.84zm.696 1.788c.552.78.972 1.464 1.272 2.04l-.6.42c-.336-.612-.78-1.296-1.344-2.04l.672-.42zm-4.536.564h1.356v-2.808h-1.5v-.804h3.804v.804H61.8v2.808h1.176v.816H61.8v2.448c.492-.204.972-.42 1.428-.66v.84c-1.164.6-2.424 1.092-3.768 1.5l-.228-.864c.576-.132 1.128-.288 1.68-.48V29.44h-1.356v-.816zm13.74-3v.828h10.62v-.828h-4.728c-.216-.552-.456-1.056-.696-1.512l-.96.168c.264.408.504.852.72 1.344h-4.956zm7.2 1.188c1.332 1.056 2.448 2.1 3.348 3.156l-.636.636c-.792-1.008-1.896-2.076-3.3-3.228l.588-.564zm.12 2.244l.792.348c-.576 1.104-1.272 2.052-2.1 2.856 1.296.936 2.868 1.632 4.74 2.112l-.54.804c-1.944-.552-3.564-1.32-4.86-2.328-1.344 1.08-2.976 1.872-4.896 2.376l-.528-.792c1.896-.48 3.468-1.2 4.728-2.16a10.6534 10.6534 0 0 1-2.16-2.712l.744-.42c.528.984 1.224 1.836 2.076 2.568.816-.768 1.488-1.644 2.004-2.652zm-3.984-2.232l.624.552c-.912 1.188-2.04 2.232-3.384 3.12l-.552-.732c1.308-.84 2.412-1.812 3.312-2.94zm10.656-2.112h10.2v.84h-6.312l-.492 1.98h5.184l-.96 6.408H97.8v.84H87.072v-.84h6.984l.336-2.112h-5.64l1.548-6.276h-3.012v-.84zm7.236 6.312l.42-2.688H90.48l-.672 2.688h4.716zm16.656-5.652v2.58h-.888v-1.74h-8.196v1.728h-.888v-2.568h4.56c-.168-.408-.348-.768-.552-1.104l.96-.168c.192.384.372.804.54 1.272h4.464zm-10.26 3.336h3.36c.36-.66.708-1.308 1.032-1.956l.888.264c-.312.6-.612 1.164-.9 1.692h6.204v.84h-2.364c-.492 1.272-1.056 2.268-1.692 3.012 1.236.528 2.496 1.152 3.768 1.872l-.576.756c-1.272-.744-2.544-1.416-3.816-1.992-1.344 1.2-3.12 1.824-5.352 1.896l-.504-.804c2.04-.012 3.708-.504 4.98-1.476-1.128-.48-2.244-.9-3.36-1.26.432-.672.84-1.344 1.224-2.004h-2.892v-.84zm3.912.84c-.36.624-.696 1.176-1.008 1.656.912.264 1.836.6 2.784.996.648-.708 1.176-1.596 1.584-2.652h-3.36zm14.856-5.316h.624c1.512 1.584 3.252 2.82 5.22 3.732l-.432.768c-1.992-.96-3.684-2.196-5.1-3.72-1.308 1.452-3.024 2.712-5.148 3.78l-.42-.756c2.112-1.02 3.864-2.292 5.256-3.804zm-3.036 3.792h6.696v.828h-2.904v2.088h3.468v.828h-3.468v2.22h4.56v.852h-9.996v-.852h4.548v-2.22h-3.48v-.828h3.48v-2.088h-2.904v-.828zm16.296.792h-2.556v4.956c0 .276.144.42.456.42h2.292c.408 0 .672-.108.768-.3.108-.228.192-.672.24-1.332l.816.264c-.084 1.02-.24 1.644-.456 1.884-.192.192-.576.288-1.14.288h-2.856c-.672 0-.996-.312-.996-.924v-6.024h4.272v3.192c-.012.648-.348.984-1.008 1.008-.456 0-.9-.012-1.32-.036l-.216-.816c.456.048.864.072 1.224.072.312 0 .48-.168.48-.492v-2.16zm-1.524-4.512h.636a49.9509 49.9509 0 0 1 3.012 3.492l-.564.6c-1.032-1.368-1.932-2.46-2.7-3.276-.888 1.32-1.908 2.532-3.084 3.636l-.504-.696c1.176-1.068 2.244-2.316 3.204-3.756zm4.356.948h.84v7.476h-.84v-7.476zm2.004 9.84h-1.86l-.192-.828c.612.036 1.2.06 1.752.06.3 0 .456-.18.456-.54v-9.552h.864V34c0 .72-.348 1.092-1.02 1.092zM147.24 24.7h5.688v.816h-2.388c-.06.456-.132.888-.228 1.32h2.244V32.5h-.84v-4.872h-3.108v4.968h-.852v-5.76h1.716c.096-.432.168-.864.216-1.32h-2.448V24.7zm3.816 7.836c.816.696 1.5 1.404 2.064 2.1l-.612.612c-.492-.672-1.176-1.392-2.04-2.148l.588-.564zm-1.32-4.116h.816v2.064c-.024 1.284-.276 2.316-.744 3.084-.456.708-1.2 1.272-2.232 1.68l-.456-.732c.972-.372 1.656-.876 2.04-1.5.36-.648.552-1.488.576-2.532V28.42zm-5.28-4.116h.648c.816.948 1.608 1.956 2.376 3.024l-.576.612c-.78-1.176-1.464-2.112-2.04-2.808-.684 1.224-1.476 2.34-2.376 3.348l-.492-.696c.9-.984 1.716-2.148 2.46-3.48zm-1.776 5.244v.804h3.372c-.456.888-.924 1.668-1.416 2.328-.372-.324-.756-.648-1.164-.972l-.576.552c1.26 1.02 2.244 1.98 2.964 2.88l.624-.612c-.384-.444-.816-.888-1.284-1.332.672-.864 1.26-1.836 1.776-2.928v-.72h-4.296zm2.028-2.64c.528.708.924 1.32 1.212 1.848l-.624.444c-.3-.576-.708-1.212-1.212-1.908l.624-.384zm12.444-1.464h3.288v-1.272h.888v1.272h2.832v.804h-2.832v1.428h1.512c1.128-.804 2.124-1.716 2.976-2.724l.66.48c-.708.84-1.464 1.596-2.268 2.244h2.568v.816h-3.66c-.18.12-.36.228-.54.348-.552.336-1.188.66-1.884.984h4.536v5.4h-.864v-.54h-5.196v.54h-.876v-4.416c-.648.24-1.32.468-2.016.696l-.36-.804c2.052-.48 3.924-1.224 5.628-2.208h-5.46v-.816h4.356v-1.428h-3.288v-.804zm2.016 7.164v1.308h5.196v-1.308h-5.196zm5.196-.768v-1.26h-5.196v1.26h5.196z" fill="#fff" opacity=".6"/><path d="M137.675 9.098v8.534h-1.241v-8.67c-.561 1.734-1.309 3.298-2.227 4.692l-.527-1.343c1.241-1.666 2.125-3.553 2.669-5.695h-2.397V5.443h2.482V2.128h1.241v3.315h2.04v1.173h-2.04v1.122c.748.833 1.513 1.768 2.295 2.788l-.731 1.071c-.612-1.02-1.122-1.853-1.564-2.499zm3.587-5.117h-1.938V2.808h7.973v.782c-.34 1.513-.663 2.822-1.003 3.91h2.21v.68c-.357 2.329-1.139 4.301-2.329 5.899.901.935 1.938 1.768 3.128 2.516l-.782 1.037c-1.207-.782-2.244-1.649-3.128-2.618-1.02 1.071-2.261 1.955-3.723 2.652l-.68-1.122c1.428-.697 2.618-1.547 3.57-2.55-1.02-1.36-1.785-2.89-2.312-4.573-.425 3.553-1.428 6.273-3.009 8.16l-.935-.816c1.938-2.312 2.924-6.035 2.958-11.135V3.981zm4.046 9.112c.969-1.292 1.632-2.805 1.972-4.522h-2.448c.34-1.037.731-2.567 1.173-4.59h-3.536V5.63c0 .238-.017.459-.017.68.408 2.618 1.36 4.879 2.856 6.783zm13.753-5.984c-.612.68-1.258 1.292-1.938 1.819l-.646-.986c1.904-1.479 3.383-3.4 4.403-5.763h1.122c.85 2.176 2.346 4.063 4.454 5.695l-.663 1.02c-.731-.561-1.377-1.156-1.955-1.785v1.054h-4.777V7.109zm4.726-.068c-.986-1.122-1.768-2.346-2.346-3.672-.68 1.428-1.445 2.652-2.329 3.672h4.675zm-6.817 8.891h5.525c.646-1.802 1.224-4.046 1.734-6.715l1.173.289c-.476 2.414-1.037 4.556-1.717 6.426h2.567v1.173h-9.282v-1.173zm1.564-6.222c.544 1.411 1.02 3.043 1.462 4.879l-1.054.255c-.374-1.666-.867-3.247-1.462-4.777l1.054-.357zm2.618-.493c.459 1.343.867 2.89 1.241 4.641l-1.071.255c-.306-1.581-.714-3.111-1.224-4.573l1.054-.323zm-6.086-5.202h-4.114V2.893h5.338l-.816 7.004h1.054c0 3.876-.17 6.103-.493 6.698-.34.578-1.037.884-2.108.884-.391 0-.799-.017-1.207-.051l-.323-1.088c.595.068 1.02.102 1.258.102.816 0 1.309-.272 1.479-.782.17-.544.272-2.091.272-4.675h-4.335l.799-5.831 1.122.068-.68 4.675h2.006l.748-5.882zm-.629 8.483v1.105c-1.122.425-2.38.765-3.791 1.037l-.153-1.156c1.496-.255 2.822-.578 3.944-.986z" fill="#fff"/></g></svg>