<?xml version="1.0" encoding="UTF-8"?>
<svg width="157px" height="44px" viewBox="0 0 157 44" version="1.1" xmlns="http://www.w3.org/2000/svg" xmlns:xlink="http://www.w3.org/1999/xlink">
    <!-- Generator: Sketch 50.2 (55047) - http://www.bohemiancoding.com/sketch -->
    <title>DDoS-normal</title>
    <desc>Created with Sketch.</desc>
    <defs></defs>
    <g id="Page-1" stroke="none" stroke-width="1" fill="none" fill-rule="evenodd">
        <g id="-" transform="translate(-495.000000, -1651.000000)">
            <g id="DDoS-normal" transform="translate(491.000000, 1648.000000)">
                <g id="Group-38-Copy-16">
                    <g id="Group-10-Copy-14" transform="translate(57.000000, 3.000000)">
                        <path d="M97.3487516,0.395893754 C97.3487516,0.171197299 97.5247341,0 97.7711097,0 L98.4985043,0 C98.6979512,0 98.8387373,0.117698143 98.9325946,0.288895442 L100.340455,2.69635746 L101.760048,0.288895442 C101.853905,0.117698143 101.994691,0 102.194138,0 L102.909801,0 C103.167908,0 103.355623,0.160497468 103.355623,0.395893754 L103.355623,4.00173686 L102.346656,4.00173686 L102.346656,1.10208261 L100.96226,3.43464581 C100.880135,3.56304379 100.774545,3.64864244 100.633759,3.64864244 L100.070615,3.64864244 C99.918097,3.64864244 99.8125075,3.55234395 99.7303823,3.43464581 L98.3459861,1.10208261 L98.3459861,4.00173686 L97.3487516,4.00173686 L97.3487516,0.395893754 Z M96.4453744,0 L96.4453744,0.71688869 L94.9319243,0.71688869 L94.9319243,4.00173686 L93.9229576,4.00173686 L93.9229576,0.71688869 L92.3508467,0.71688869 L92.6558832,0 L96.4453744,0 Z" id="™" fill="#666666" opacity="0.699999988"></path>
                        <path d="M0.820790274,20.0091185 L0.820790274,5.20269214 L4.88255319,5.20269214 C9.40451585,5.20269214 12.2057317,7.54370821 12.2057317,12.5458793 C12.2057317,17.5280417 9.40451585,20.0091185 5.04262267,20.0091185 L0.820790274,20.0091185 Z M3.78207555,17.6280851 L4.70247503,17.6280851 C7.46367347,17.6280851 9.18442032,16.1474425 9.18442032,12.5458793 C9.18442032,8.92430743 7.46367347,7.56371689 4.70247503,7.56371689 L3.78207555,7.56371689 L3.78207555,17.6280851 Z M15.0069475,20.0091185 L15.0069475,5.20269214 L19.0687104,5.20269214 C23.590673,5.20269214 26.3918888,7.54370821 26.3918888,12.5458793 C26.3918888,17.5280417 23.590673,20.0091185 19.2287798,20.0091185 L15.0069475,20.0091185 Z M17.9682327,17.6280851 L18.8886322,17.6280851 C21.6498307,17.6280851 23.3705775,16.1474425 23.3705775,12.5458793 C23.3705775,8.92430743 21.6498307,7.56371689 18.8886322,7.56371689 L17.9682327,7.56371689 L17.9682327,17.6280851 Z M33.6350326,20.2892401 C30.8338168,20.2892401 28.2526965,18.1283022 28.2526965,14.4266956 C28.2526965,10.6850716 30.8338168,8.52413374 33.6350326,8.52413374 C36.4362484,8.52413374 39.0173686,10.6850716 39.0173686,14.4266956 C39.0173686,18.1283022 36.4362484,20.2892401 33.6350326,20.2892401 Z M33.6350326,17.888198 C35.1556926,17.888198 36.016066,16.5276075 36.016066,14.4266956 C36.016066,12.3057751 35.1556926,10.9251759 33.6350326,10.9251759 C32.1143726,10.9251759 31.2539991,12.3057751 31.2539991,14.4266956 C31.2539991,16.5276075 32.1143726,17.888198 33.6350326,17.888198 Z M46.0404168,20.2892401 C44.0595571,20.2892401 42.0786973,19.5089014 40.6380721,18.1283022 L42.3388102,16.0874164 C43.3992705,17.0678419 44.7998784,17.7281285 46.1004429,17.7281285 C47.6411116,17.7281285 48.4614676,17.0678419 48.4614676,16.0273904 C48.4614676,14.9269127 47.5610768,14.5867651 46.2405037,14.0265219 L44.2596439,13.1861572 C42.7589926,12.565888 41.2583413,11.3653669 41.2583413,9.20442901 C41.2583413,6.7833782 43.3792618,4.92257056 46.3805645,4.92257056 C48.1013113,4.92257056 49.8220582,5.60286583 51.0225792,6.82339557 L49.5219279,8.68420321 C48.5815197,7.90386452 47.6010942,7.46367347 46.3805645,7.46367347 C45.08,7.46367347 44.2396352,8.04392531 44.2396352,9.02435085 C44.2396352,10.0848111 45.3000955,10.4649761 46.5606426,10.9651932 L48.501485,11.7855493 C50.3022666,12.5258706 51.482779,13.6663656 51.482779,15.8072948 C51.482779,18.2283456 49.4619019,20.2892401 46.0404168,20.2892401 Z M64.3083456,18.2483543 L64.3083456,17.1078593 L59.9064351,17.1078593 L59.9064351,18.2483543 L64.3083456,18.2483543 Z M70.5310464,12.7859835 L70.5310464,19.5689275 C70.5310464,20.6093791 70.2709336,21.0295614 69.5106035,21.3296917 C68.7902909,21.5697959 67.709822,21.5898046 66.3292227,21.5697959 C66.2091706,21.0495701 65.8890317,20.3692749 65.6289188,19.8890664 L59.9064351,19.8890664 L59.9064351,20.7294312 L57.7054798,20.7294312 L57.7054798,15.4471385 L66.4092575,15.4471385 L66.4092575,19.8890664 L66.1291359,19.8890664 C66.8294398,19.9090751 67.5297438,19.9090751 67.7298306,19.8890664 C68.0099522,19.8890664 68.1300043,19.8090317 68.1300043,19.5489188 L68.1300043,14.7068172 L56.1848198,14.7068172 L56.1848198,21.7298654 L53.8838211,21.7298654 L53.8838211,12.7859835 L70.5310464,12.7859835 Z M66.1091272,10.3849414 L66.1091272,9.28446374 L58.3657664,9.28446374 L58.3657664,10.3849414 L66.1091272,10.3849414 Z M68.6102128,7.683769 L68.6102128,11.9656274 L55.9847329,11.9656274 L55.9847329,7.683769 L68.6102128,7.683769 Z M63.7881198,4.92257056 L70.9912462,4.92257056 L70.9912462,6.92343899 L53.3235779,6.92343899 L53.3235779,4.92257056 L61.0269214,4.92257056 C60.8668519,4.44236214 60.7067824,3.94214503 60.546713,3.52196266 L63.0077811,2.92170213 C63.2278767,3.54197134 63.5480156,4.28229266 63.7881198,4.92257056 Z M78.674581,3.82209292 L80.2952844,4.76250109 C79.7550499,6.52326531 79.054746,8.74422927 78.4544854,10.3249153 C79.7350412,11.9056014 79.9751454,13.2862006 79.9751454,14.4467043 C79.9751454,15.7672775 79.6950239,16.5876335 79.0347373,17.0678419 C78.734607,17.3079462 78.3344333,17.4480069 77.8742336,17.508033 C77.4940686,17.5680591 76.9938515,17.5680591 76.5336517,17.5680591 C76.5136431,16.9477898 76.3335649,16.0273904 75.9934173,15.4271298 C76.3535736,15.4671472 76.6537038,15.4671472 76.8737994,15.4471385 C77.0938949,15.4471385 77.2939817,15.4071211 77.4740599,15.287069 C77.7141641,15.1069909 77.8142075,14.7068172 77.8142075,14.1265653 C77.8142075,13.2061659 77.534086,11.9256101 76.3735823,10.5650195 C76.8137733,9.28446374 77.2539644,7.44366479 77.5741033,6.04305688 L75.8133391,6.04305688 L75.8133391,21.7498741 L73.5923751,21.7498741 L73.5923751,3.92213634 L78.3344333,3.92213634 L78.674581,3.82209292 Z M91.2400347,8.46410769 L84.7772297,8.46410769 C84.7372123,9.28446374 84.7172036,10.0648024 84.6571776,10.8451411 L90.1595658,10.8451411 C90.1595658,10.8451411 90.1395571,11.5454451 90.1395571,11.8455753 C89.9394702,17.6681025 89.7393834,19.9691012 89.1391229,20.7294312 C88.6789231,21.3296917 88.2187234,21.5297785 87.5584368,21.629822 C86.978185,21.7298654 85.9977594,21.7298654 84.9773165,21.689848 C84.9372992,20.9895441 84.6571776,20.0091185 84.2570039,19.3288233 C85.1573947,19.4288667 85.9577421,19.4488754 86.3579157,19.4488754 C86.6780547,19.4488754 86.8781415,19.3688406 87.038211,19.1487451 C87.3983673,18.7485714 87.5984542,17.1078593 87.7185063,13.006079 L84.4570907,13.006079 C83.9568736,16.7677117 82.7163352,19.7490056 79.2148154,21.689848 C78.9146852,21.1095962 78.2343899,20.2892401 77.6941554,19.8490491 C81.9960226,17.5880677 82.2961528,13.6463569 82.4162049,8.46410769 L79.8550933,8.46410769 L79.8550933,6.26315241 L84.7172036,6.26315241 C84.5571342,5.50282241 84.2169865,4.3623274 83.9168563,3.48194529 L86.0978028,2.9617195 C86.4579592,3.84210161 86.8781415,5.06263135 87.038211,5.78294399 L85.3974989,6.26315241 L91.2400347,6.26315241 L91.2400347,8.46410769 Z" id="DDoS高防" fill="#008AFF"></path>
                        <path d="M3.70517412,39.0970248 L6.31930873,39.0970248 L5.94214503,37.8094659 C5.61700391,36.7690143 5.33087972,35.7025515 5.03174989,34.6230829 L4.97972731,34.6230829 C4.70660877,35.7155571 4.40747894,36.7690143 4.09534347,37.8094659 L3.70517412,39.0970248 Z M7.48981676,43.0117238 L6.68346678,40.2805384 L3.35402171,40.2805384 L2.53466609,43.0117238 L1,43.0117238 L4.17337733,33.4395693 L5.91613374,33.4395693 L9.08951107,43.0117238 L7.48981676,43.0117238 Z M10.2210022,43.0117238 L10.2210022,35.8586192 L11.4435328,35.8586192 L11.5605836,36.8470482 L11.5996005,36.8470482 C12.2628884,36.2097716 12.9912045,35.6765402 13.9666279,35.6765402 C15.4882883,35.6765402 16.1645818,36.6909805 16.1645818,38.5117707 L16.1645818,43.0117238 L14.6689327,43.0117238 L14.6689327,38.6938498 C14.6689327,37.4583135 14.3047746,36.964099 13.4594077,36.964099 C12.7961198,36.964099 12.3409223,37.3022458 11.7036457,37.9395224 L11.7036457,43.0117238 L10.2210022,43.0117238 Z M20.7425688,43.1807972 C19.1298689,43.1807972 18.5706261,42.1793626 18.5706261,40.6707078 L18.5706261,37.0551385 L17.5301746,37.0551385 L17.5301746,35.9366531 L18.6356544,35.8586192 L18.8047277,33.8817612 L20.0662753,33.8817612 L20.0662753,35.8586192 L21.9260825,35.8586192 L21.9260825,37.0551385 L20.0662753,37.0551385 L20.0662753,40.6837134 C20.0662753,41.542086 20.3654051,41.9842779 21.1067269,41.9842779 C21.3538341,41.9842779 21.6659696,41.906244 21.8740599,41.8152045 L22.1471785,42.9206843 C21.7440035,43.0507408 21.2627946,43.1807972 20.7425688,43.1807972 Z M23.4867599,43.0117238 L23.4867599,35.8586192 L24.9694034,35.8586192 L24.9694034,43.0117238 L23.4867599,43.0117238 Z M24.2280816,34.5190378 C23.6818446,34.5190378 23.2786696,34.1548797 23.2786696,33.6346539 C23.2786696,33.1014225 23.6818446,32.7502701 24.2280816,32.7502701 C24.7743187,32.7502701 25.1904993,33.1014225 25.1904993,33.6346539 C25.1904993,34.1548797 24.7743187,34.5190378 24.2280816,34.5190378 Z M30.2757065,43.0117238 L30.2757065,33.4395693 L32.7597846,33.4395693 C35.6990604,33.4395693 37.3767885,35.0652749 37.3767885,38.1866296 C37.3767885,41.2949787 35.6990604,43.0117238 32.8378185,43.0117238 L30.2757065,43.0117238 Z M31.7843613,41.7761876 L32.6557395,41.7761876 C34.7106314,41.7761876 35.8161112,40.5666626 35.8161112,38.1866296 C35.8161112,35.793591 34.7106314,34.6620999 32.6557395,34.6620999 L31.7843613,34.6620999 L31.7843613,41.7761876 Z M39.3666522,43.0117238 L39.3666522,33.4395693 L41.8507304,33.4395693 C44.7900061,33.4395693 46.4677343,35.0652749 46.4677343,38.1866296 C46.4677343,41.2949787 44.7900061,43.0117238 41.9287642,43.0117238 L39.3666522,43.0117238 Z M40.875307,41.7761876 L41.7466852,41.7761876 C43.8015771,41.7761876 44.9070569,40.5666626 44.9070569,38.1866296 C44.9070569,35.793591 43.8015771,34.6620999 41.7466852,34.6620999 L40.875307,34.6620999 L40.875307,41.7761876 Z M51.1887833,43.1807972 C49.4200156,43.1807972 47.8203213,41.8152045 47.8203213,39.4481772 C47.8203213,37.0551385 49.4200156,35.6765402 51.1887833,35.6765402 C52.957551,35.6765402 54.5572453,37.0551385 54.5572453,39.4481772 C54.5572453,41.8152045 52.957551,43.1807972 51.1887833,43.1807972 Z M51.1887833,41.9582666 C52.3202744,41.9582666 53.0225792,40.956832 53.0225792,39.4481772 C53.0225792,37.9265167 52.3202744,36.9120764 51.1887833,36.9120764 C50.0702979,36.9120764 49.3679931,37.9265167 49.3679931,39.4481772 C49.3679931,40.956832 50.0702979,41.9582666 51.1887833,41.9582666 Z M59.1742492,43.1807972 C57.8606791,43.1807972 56.6381485,42.6605714 55.7667703,41.7761876 L56.6511541,40.735736 C57.3404533,41.4250352 58.2768597,41.8672271 59.2002605,41.8672271 C60.3577629,41.8672271 61.0080452,41.32099 61.0080452,40.51464 C61.0080452,39.6432618 60.3577629,39.3701433 59.4733791,38.9799739 L58.1468033,38.4077256 C57.2234025,38.0175562 56.1959566,37.2892401 56.1959566,35.8976361 C56.1959566,34.3889813 57.5225323,33.2574902 59.3433226,33.2574902 C60.4618081,33.2574902 61.5152653,33.7256934 62.2435814,34.4670152 L61.4502371,35.4294329 C60.8519774,34.8962015 60.1886895,34.5710604 59.3433226,34.5710604 C58.3678993,34.5710604 57.7306227,35.0392636 57.7306227,35.8065966 C57.7306227,36.6259522 58.4979557,36.9380877 59.2782944,37.2502232 L60.5918645,37.8094659 C61.7233556,38.2906748 62.5427112,38.9929796 62.5427112,40.3975892 C62.5427112,41.9322553 61.2681581,43.1807972 59.1742492,43.1807972 Z" id="Anti-DDoS" fill="#4A4A4A" opacity="0.699999988"></path>
                    </g>
                </g>
                <g id="Grid" transform="translate(0.000000, 2.000000)">
                    <g id="Icon-Copy">
                        <g id="深知-normal-copy" transform="translate(3.200000, 3.200000)">
                            <g id="Group-10-Copy-7">
                                <g id="Group-5-Copy-2">
                                    <g id="Combined-Shape">
                                        <path d="M3.4,1.8 L3.4,28.7218231 L20.7953035,39.4806371 L38.2,28.6090756 L38.2,1.8 L3.4,1.8 Z" id="Rectangle-5" stroke="#008AFF" stroke-width="3.6" fill="#83C6FF"></path>
                                        <polygon id="Rectangle-5" fill="#008AFF" points="20.8 8 32 8 32 25.0626818 20.8 32"></polygon>
                                        <rect id="Rectangle" fill="#FFFFFF" x="14.8" y="8" width="6" height="6"></rect>
                                        <rect id="Rectangle" fill="#FFFFFF" opacity="0.6" x="8.8" y="14" width="6" height="6"></rect>
                                        <rect id="Rectangle" fill="#FFFFFF" opacity="0.8" x="14.8" y="20" width="6" height="6"></rect>
                                        <rect id="Rectangle" fill="#FFFFFF" opacity="0.4" x="11.6" y="26" width="3.2" height="3.2"></rect>
                                    </g>
                                </g>
                            </g>
                        </g>
                    </g>
                </g>
            </g>
        </g>
    </g>
</svg>