<?xml version="1.0" encoding="UTF-8"?>
<svg width="122px" height="48px" viewBox="0 0 122 48" version="1.1" xmlns="http://www.w3.org/2000/svg" xmlns:xlink="http://www.w3.org/1999/xlink">
    <!-- Generator: Sketch 49 (51002) - http://www.bohemiancoding.com/sketch -->
    <title>deepknow</title>
    <desc>Created with Sketch.</desc>
    <defs>
        <path d="M0,0 L41.6,0 L41.6,41.6 L0,41.6 L0,0 Z M2,2 L2,40 L40,40 L40,2 L2,2 Z M0,0 L20.8,0 L20.8,41.6 L0,41.6 L0,0 Z" id="path-1"></path>
        <path d="M20.8,29.59764 L7.8,20.66014 L11.2666667,16.11014 L20.8,22.6643066 L20.8,29.59764 Z" id="path-3"></path>
    </defs>
    <g id="final" stroke="none" stroke-width="1" fill="none" fill-rule="evenodd">
        <g id="Group-9">
            <g id="Group-5" transform="translate(56.000000, 6.000000)">
                <g id="Group-3-Copy">
                    <g id="Group-13">
                        <path d="M8.56,3 L8.56,5.06 L6.48,5.06 L6.48,0.98 L18.66,0.98 L18.66,4.94 L16.48,4.94 L16.48,3 L8.56,3 Z M12.98,4.8 L14.68,3.7 C16.02,4.9 17.7,6.62 18.48,7.82 L16.66,9.08 C15.96,7.9 14.34,6.1 12.98,4.8 Z M9.76,3.86 L11.9,4.54 C10.9,6.28 9.28,8.04 7.8,9.08 C7.44,8.66 6.64,7.86 6.16,7.46 C7.56,6.6 8.98,5.24 9.76,3.86 Z M5.92,2.06 L4.7,4.1 C3.98,3.52 2.48,2.62 1.42,2.06 L2.6,0.24 C3.64,0.72 5.18,1.52 5.92,2.06 Z M5.26,7.72 L4.1,9.7 C3.34,9.04 1.76,8.06 0.62,7.44 L1.7,5.68 C2.82,6.2 4.44,7.08 5.26,7.72 Z M4.18,10.58 L5.7,12.22 C4.82,14.3 3.74,16.56 2.72,18.5 L0.94,16.82 C1.84,15.34 3.14,12.86 4.18,10.58 Z M18.66,11.84 L15,11.84 C16.08,13.48 17.72,15.02 19.34,15.9 C18.8,16.32 18.06,17.14 17.66,17.74 C16.22,16.78 14.84,15.26 13.74,13.56 L13.74,18.56 L11.32,18.56 L11.32,13.5 C10.12,15.32 8.54,16.88 6.78,17.86 C6.42,17.3 5.72,16.5 5.22,16.06 C7.16,15.18 8.9,13.62 10.06,11.84 L6.44,11.84 L6.44,9.72 L11.32,9.72 L11.32,7.74 L13.74,7.74 L13.74,9.72 L18.66,9.72 L18.66,11.84 Z M30.18,10.2 L26.74,10.2 C26.7,10.48 26.66,10.76 26.6,11.02 C27.64,12.04 29.8,14.54 30.36,15.2 L28.76,17.2 C28.1,16.16 26.96,14.66 25.98,13.44 C25.3,15.4 24.12,17.28 22.2,18.68 C21.88,18.18 21,17.24 20.5,16.88 C23.1,15.02 24.02,12.52 24.34,10.2 L20.8,10.2 L20.8,7.96 L24.5,7.96 L24.5,4.78 L23.7,4.78 C23.3,5.8 22.84,6.72 22.34,7.46 C21.9,7.06 20.96,6.38 20.42,6.08 C21.5,4.64 22.26,2.34 22.66,0.06 L24.94,0.52 C24.8,1.22 24.64,1.9 24.44,2.58 L29.72,2.58 L29.72,4.78 L26.9,4.78 L26.9,7.96 L30.18,7.96 L30.18,10.2 Z M33.02,14.48 L35.92,14.48 L35.92,4.02 L33.02,4.02 L33.02,14.48 Z M30.72,1.78 L38.34,1.78 L38.34,17.86 L35.92,17.86 L35.92,16.72 L33.02,16.72 L33.02,18.16 L30.72,18.16 L30.72,1.78 Z" id="深知" fill="#008AFF"></path>
                        <path d="M1.261,36 L1.261,26.432 L3.744,26.432 C6.682,26.432 8.359,28.057 8.359,31.177 C8.359,34.284 6.682,36 3.822,36 L1.261,36 Z M2.769,34.765 L3.64,34.765 C5.694,34.765 6.799,33.556 6.799,31.177 C6.799,28.785 5.694,27.654 3.64,27.654 L2.769,27.654 L2.769,34.765 Z M13.195,36.169 C11.258,36.169 9.711,34.791 9.711,32.438 C9.711,30.111 11.297,28.668 12.974,28.668 C14.872,28.668 15.886,30.033 15.886,32.061 C15.886,32.347 15.86,32.646 15.821,32.815 L11.18,32.815 C11.297,34.18 12.155,34.999 13.39,34.999 C14.027,34.999 14.573,34.804 15.093,34.466 L15.613,35.415 C14.95,35.857 14.131,36.169 13.195,36.169 Z M11.167,31.788 L14.599,31.788 C14.599,30.553 14.04,29.838 13,29.838 C12.103,29.838 11.31,30.527 11.167,31.788 Z M20.54,36.169 C18.603,36.169 17.056,34.791 17.056,32.438 C17.056,30.111 18.642,28.668 20.319,28.668 C22.217,28.668 23.231,30.033 23.231,32.061 C23.231,32.347 23.205,32.646 23.166,32.815 L18.525,32.815 C18.642,34.18 19.5,34.999 20.735,34.999 C21.372,34.999 21.918,34.804 22.438,34.466 L22.958,35.415 C22.295,35.857 21.476,36.169 20.54,36.169 Z M18.512,31.788 L21.944,31.788 C21.944,30.553 21.385,29.838 20.345,29.838 C19.448,29.838 18.655,30.527 18.512,31.788 Z M24.908,38.899 L24.908,28.85 L26.13,28.85 L26.247,29.63 L26.286,29.63 C26.91,29.11 27.69,28.668 28.483,28.668 C30.303,28.668 31.317,30.111 31.317,32.308 C31.317,34.765 29.848,36.169 28.236,36.169 C27.599,36.169 26.962,35.883 26.351,35.363 L26.39,36.585 L26.39,38.899 L24.908,38.899 Z M27.95,34.934 C28.99,34.934 29.77,34.011 29.77,32.334 C29.77,30.839 29.289,29.916 28.093,29.916 C27.534,29.916 27.001,30.202 26.39,30.787 L26.39,34.284 C26.949,34.765 27.508,34.934 27.95,34.934 Z M33.098,36 L33.098,25.639 L34.554,25.639 L34.554,32.321 L34.593,32.321 L37.401,28.85 L39.052,28.85 L36.621,31.749 L39.325,36 L37.7,36 L35.763,32.763 L34.554,34.154 L34.554,36 L33.098,36 Z M40.573,36 L40.573,28.85 L41.795,28.85 L41.912,29.838 L41.951,29.838 C42.614,29.201 43.342,28.668 44.317,28.668 C45.838,28.668 46.514,29.682 46.514,31.502 L46.514,36 L45.019,36 L45.019,31.684 C45.019,30.449 44.655,29.955 43.81,29.955 C43.147,29.955 42.692,30.293 42.055,30.93 L42.055,36 L40.573,36 Z M51.545,36.169 C49.777,36.169 48.178,34.804 48.178,32.438 C48.178,30.046 49.777,28.668 51.545,28.668 C53.313,28.668 54.912,30.046 54.912,32.438 C54.912,34.804 53.313,36.169 51.545,36.169 Z M51.545,34.947 C52.676,34.947 53.378,33.946 53.378,32.438 C53.378,30.917 52.676,29.903 51.545,29.903 C50.427,29.903 49.725,30.917 49.725,32.438 C49.725,33.946 50.427,34.947 51.545,34.947 Z M57.824,36 L55.887,28.85 L57.395,28.85 L58.344,32.724 C58.487,33.413 58.604,34.076 58.734,34.752 L58.786,34.752 C58.942,34.076 59.085,33.4 59.254,32.724 L60.255,28.85 L61.646,28.85 L62.673,32.724 C62.842,33.413 62.985,34.076 63.154,34.752 L63.206,34.752 C63.349,34.076 63.466,33.413 63.622,32.724 L64.545,28.85 L65.949,28.85 L64.103,36 L62.309,36 L61.399,32.464 C61.23,31.788 61.1,31.138 60.944,30.397 L60.879,30.397 C60.736,31.138 60.606,31.801 60.424,32.477 L59.553,36 L57.824,36 Z" id="Deepknow" fill="#4A4A4A" opacity="0.699999988"></path>
                    </g>
                </g>
            </g>
            <path d="M102.995736,4.43390192 C102.995736,4.18763326 103.171642,4 103.41791,4 L104.144989,4 C104.34435,4 104.485075,4.12899787 104.578891,4.31663113 L105.986141,6.95522388 L107.405117,4.31663113 C107.498934,4.12899787 107.639659,4 107.839019,4 L108.554371,4 C108.812367,4 109,4.17590618 109,4.43390192 L109,8.38592751 L107.991471,8.38592751 L107.991471,5.20788913 L106.607676,7.76439232 C106.525586,7.90511727 106.420043,7.9989339 106.279318,7.9989339 L105.716418,7.9989339 C105.563966,7.9989339 105.458422,7.89339019 105.376333,7.76439232 L103.992537,5.20788913 L103.992537,8.38592751 L102.995736,8.38592751 L102.995736,4.43390192 Z M102.092751,4 L102.092751,4.78571429 L100.579957,4.78571429 L100.579957,8.38592751 L99.5714286,8.38592751 L99.5714286,4.78571429 L98,4.78571429 L98.3049041,4 L102.092751,4 Z" id="™" fill="#666666" opacity="0.699999988"></path>
            <g id="Group-10-Copy-6">
                <g id="Icon-Copy"></g>
                <g id="Group-5-Copy-2" transform="translate(3.200000, 3.200000)">
                    <g id="Combined-Shape">
                        <rect id="Rectangle-5" fill="#83C6FF" x="0" y="0" width="41.6" height="41.6"></rect>
                        <mask id="mask-2" fill="white">
                            <use xlink:href="#path-1"></use>
                        </mask>
                        <use id="Mask" fill="#008AFF" xlink:href="#path-1"></use>
                        <rect id="Rectangle-5" stroke="#008AFF" stroke-width="3.46666667" x="1.73333333" y="1.73333333" width="38.1333333" height="38.1333333"></rect>
                    </g>
                    <path d="M20.8,38.2643066 L3.46666667,26.34764 L6.93333333,21.79764 L20.8,31.3309733 L20.8,38.2643066 Z" id="Combined-Shape" fill="#FFFFFF"></path>
                    <path d="M20.8,38.2643066 L20.8,31.3309733 L34.6666667,21.79764 L38.1333333,26.34764 L20.8,38.2643066 Z" id="Combined-Shape" fill="#008AFF"></path>
                    <g id="Combined-Shape">
                        <use fill="#FFFFFF" fill-rule="evenodd" xlink:href="#path-3"></use>
                        <path stroke="#FFFFFF" stroke-width="0.866666667" d="M20.3666667,28.7738601 L20.3666667,22.8922532 L11.3612453,16.701026 L8.42044186,20.5608305 L20.3666667,28.7738601 Z"></path>
                    </g>
                    <path d="M20.8,29.59764 L20.8,22.6643066 L30.3333333,16.11014 L33.8,20.66014 L20.8,29.59764 Z" id="Combined-Shape" fill="#008AFF"></path>
                    <path d="M20.8,20.9309733 L12.1333333,14.97264 L15.6,10.42264 L20.8,13.99764 L20.8,20.9309733 Z" id="Combined-Shape" fill="#FFFFFF"></path>
                    <path d="M20.8,20.9309733 L20.8,13.99764 L26,10.42264 L29.4666667,14.97264 L20.8,20.9309733 Z" id="Combined-Shape" fill="#008AFF"></path>
                    <path d="M20.8,3.59763997 L20.8,12.2643066 L16.4666667,9.28513997 L20.8,3.59763997 Z" id="Combined-Shape" fill="#FFFFFF"></path>
                    <path d="M20.8,3.59763997 L25.1333333,9.28513997 L20.8,12.2643066 L20.8,3.59763997 Z" id="Combined-Shape" fill="#008AFF"></path>
                </g>
            </g>
        </g>
    </g>
</svg>