<?xml version="1.0" encoding="UTF-8"?>
<svg width="149px" height="48px" viewBox="0 0 149 48" version="1.1" xmlns="http://www.w3.org/2000/svg" xmlns:xlink="http://www.w3.org/1999/xlink">
    <!-- Generator: Sketch 49 (51002) - http://www.bohemiancoding.com/sketch -->
    <title>onepass</title>
    <desc>Created with Sketch.</desc>
    <defs>
        <circle id="path-1" cx="20.8" cy="20.8" r="20.8"></circle>
    </defs>
    <g id="final" stroke="none" stroke-width="1" fill="none" fill-rule="evenodd">
        <g id="Group-22">
            <path d="M142.995736,4.39572193 C142.995736,4.17112299 143.171642,4 143.41791,4 L144.144989,4 C144.34435,4 144.485075,4.11764706 144.578891,4.28877005 L145.986141,6.69518717 L147.405117,4.28877005 C147.498934,4.11764706 147.639659,4 147.839019,4 L148.554371,4 C148.812367,4 149,4.16042781 149,4.39572193 L149,8 L147.991471,8 L147.991471,5.10160428 L146.607676,7.43315508 C146.525586,7.56149733 146.420043,7.64705882 146.279318,7.64705882 L145.716418,7.64705882 C145.563966,7.64705882 145.458422,7.55080214 145.376333,7.43315508 L143.992537,5.10160428 L143.992537,8 L142.995736,8 L142.995736,4.39572193 Z M142.092751,4 L142.092751,4.71657754 L140.579957,4.71657754 L140.579957,8 L139.571429,8 L139.571429,4.71657754 L138,4.71657754 L138.304904,4 L142.092751,4 Z" id="™" fill="#666666" opacity="0.699999988"></path>
            <g id="Group-14" transform="translate(56.000000, 5.000000)">
                <path d="M6.36,12 L12.98,12 L13.4,11.64 L13.4,10.74 L6.36,10.74 L6.36,12 Z M13.4,5 L6.36,5 L6.36,6.12 L13.4,6.12 L13.4,5 Z M13.4,9.04 L13.4,7.82 L6.36,7.82 L6.36,9.04 L13.4,9.04 Z M17,7.34 L19.06,8.32 C18.1,9.84 16.98,11.2 15.72,12.42 L15.72,16.86 C15.72,18.18 15.46,18.82 14.6,19.22 C13.76,19.6 12.5,19.64 10.6,19.64 C10.52,18.98 10.14,17.92 9.82,17.28 C11.06,17.34 12.48,17.34 12.86,17.34 C13.26,17.32 13.4,17.2 13.4,16.82 L13.4,14.42 C10.22,16.84 6.44,18.62 2.36,19.86 C2.06,19.36 1.34,18.4 0.92,17.94 C4.32,17.04 7.44,15.78 10.16,14.08 L1.44,14.08 L1.44,12 L4,12 L4,2.96 L8.16,2.96 C8.42,2.28 8.64,1.6 8.78,1.02 L11.56,1.32 C11.28,1.88 10.98,2.44 10.68,2.96 L15.72,2.96 L15.72,9.18 C16.18,8.6 16.62,7.98 17,7.34 Z M24.68,1.14 L26.92,1.82 C26.4,3.22 25.8,4.62 25.08,5.94 L25.08,19.72 L22.72,19.72 L22.72,9.72 C22.34,10.2 21.96,10.68 21.58,11.1 C21.36,10.5 20.7,9.22 20.28,8.62 C22.04,6.82 23.72,3.98 24.68,1.14 Z M33.26,1.86 L35.42,1.48 C36.2,4.98 37.36,6.92 39.58,8.56 C38.98,9.06 38.3,9.84 38,10.58 C37.7,10.34 37.44,10.1 37.16,9.86 C36.94,15.64 36.7,17.9 36.1,18.64 C35.66,19.22 35.18,19.42 34.54,19.52 C34,19.62 33.08,19.62 32.14,19.58 C32.1,18.92 31.84,18 31.48,17.4 C32.28,17.48 33,17.48 33.36,17.48 C33.68,17.48 33.86,17.44 34.04,17.2 C34.4,16.76 34.62,15.08 34.8,10.84 L32.16,10.84 C31.66,15.2 30.3,18.04 27.28,19.8 C26.98,19.34 26.16,18.44 25.68,18.04 C28.36,16.7 29.48,14.32 29.8,10.84 L28,10.84 L28,9.64 C27.62,10.06 27.24,10.44 26.82,10.8 C26.58,10.24 25.88,9.12 25.44,8.62 C27.4,7.08 28.8,4.52 29.5,1.62 L31.82,2.12 C31.16,4.54 30.16,6.82 28.82,8.64 L36.04,8.64 C34.68,6.92 33.88,4.8 33.26,1.86 Z M45.4,13.56 L45.58,15.32 C43.88,15.72 42.12,16.14 40.64,16.48 L40.26,14.64 C41.6,14.4 43.48,13.98 45.4,13.56 Z M50.7,7.16 L56,7.16 C54.98,6.26 54.02,5.3 53.18,4.32 C52.44,5.36 51.58,6.3 50.7,7.16 Z M50.38,9.16 L50.38,7.46 C49.72,8.04 49.08,8.56 48.4,9.02 C48.14,8.56 47.44,7.56 47.04,7.1 C46.96,8.26 46.86,9.38 46.76,10.28 L48.3,10.28 C48.3,10.28 48.28,10.88 48.26,11.14 C48.02,16.1 47.76,18.06 47.16,18.74 C46.74,19.26 46.28,19.42 45.64,19.5 C45.12,19.56 44.16,19.56 43.2,19.52 C43.18,18.94 42.96,18.16 42.62,17.62 C43.5,17.7 44.34,17.72 44.7,17.72 C45.04,17.72 45.2,17.68 45.4,17.48 C45.76,17.08 46,15.64 46.18,12.14 L41.02,12.14 C41.26,10.34 41.46,7.38 41.54,5.12 L43.56,5.24 C43.48,6.82 43.34,8.7 43.2,10.3 L44.76,10.3 C44.98,8.52 45.16,6.06 45.28,3.78 L40.76,3.78 L40.76,1.78 L47.36,1.78 C47.28,3.42 47.16,5.34 47.02,7.1 C49.36,5.68 51.58,3.36 52.82,0.82 L54.88,1.54 C54.72,1.86 54.54,2.18 54.36,2.5 C55.7,4.02 57.66,5.66 59.44,6.62 C59.04,7.22 58.58,8.32 58.36,8.98 C57.76,8.58 57.16,8.14 56.54,7.62 L56.54,9.16 L50.38,9.16 Z M55.12,14.9 L53.22,15.18 C53.12,13.9 52.78,11.94 52.48,10.46 L54.28,10.2 C54.64,11.7 55,13.6 55.12,14.9 Z M52,15.2 L50.08,15.74 C49.94,14.46 49.46,12.5 49.04,11.02 L50.84,10.54 C51.34,12.02 51.8,13.94 52,15.2 Z M56.78,10.32 L58.94,10.78 C58.22,12.8 57.34,15.14 56.52,16.86 L58.9,16.86 L58.9,18.86 L48.54,18.86 L48.54,16.86 L54.52,16.86 C55.36,15.04 56.32,12.34 56.78,10.32 Z M66.16,4.38 L64.52,6.02 C63.88,5.14 62.44,3.78 61.38,2.82 L62.9,1.36 C64,2.26 65.46,3.52 66.16,4.38 Z M65.2,14.42 L66.78,13.08 C67,13.76 67.44,14.72 67.74,15.18 C64.1,18.32 63.44,18.9 63.08,19.4 C62.82,18.94 62.04,18.16 61.66,17.86 C62.14,17.42 62.88,16.46 62.88,15.24 L62.88,9.48 L60.54,9.48 L60.54,7.2 L65.2,7.2 L65.2,14.42 Z M75,16.78 L79.04,16.78 L79.04,19 L66.82,19 L66.82,16.78 L68.3,16.78 L68.3,7.74 L70.66,7.74 L70.66,16.78 L72.56,16.78 L72.56,4.54 L67.34,4.54 L67.34,2.32 L78.64,2.32 L78.64,4.54 L75,4.54 L75,9.02 L78.26,9.02 L78.26,11.24 L75,11.24 L75,16.78 Z" id="身份验证" fill="#653EE6"></path>
                <path d="M4.901,37.169 C2.444,37.169 0.741,35.258 0.741,32.177 C0.741,29.096 2.444,27.25 4.901,27.25 C7.358,27.25 9.074,29.096 9.074,32.177 C9.074,35.258 7.358,37.169 4.901,37.169 Z M4.901,35.856 C6.487,35.856 7.527,34.426 7.527,32.177 C7.527,29.928 6.487,28.563 4.901,28.563 C3.315,28.563 2.288,29.928 2.288,32.177 C2.288,34.426 3.315,35.856 4.901,35.856 Z M10.933,37 L10.933,29.85 L12.155,29.85 L12.272,30.838 L12.311,30.838 C12.974,30.201 13.702,29.668 14.677,29.668 C16.198,29.668 16.874,30.682 16.874,32.502 L16.874,37 L15.379,37 L15.379,32.684 C15.379,31.449 15.015,30.955 14.17,30.955 C13.507,30.955 13.052,31.293 12.415,31.93 L12.415,37 L10.933,37 Z M22.022,37.169 C20.085,37.169 18.538,35.791 18.538,33.438 C18.538,31.111 20.124,29.668 21.801,29.668 C23.699,29.668 24.713,31.033 24.713,33.061 C24.713,33.347 24.687,33.646 24.648,33.815 L20.007,33.815 C20.124,35.18 20.982,35.999 22.217,35.999 C22.854,35.999 23.4,35.804 23.92,35.466 L24.44,36.415 C23.777,36.857 22.958,37.169 22.022,37.169 Z M19.994,32.788 L23.426,32.788 C23.426,31.553 22.867,30.838 21.827,30.838 C20.93,30.838 20.137,31.527 19.994,32.788 Z M26.52,37 L26.52,27.432 L29.419,27.432 C31.551,27.432 33.072,28.16 33.072,30.318 C33.072,32.411 31.551,33.373 29.471,33.373 L28.028,33.373 L28.028,37 L26.52,37 Z M28.028,32.164 L29.328,32.164 C30.862,32.164 31.59,31.579 31.59,30.318 C31.59,29.057 30.797,28.641 29.276,28.641 L28.028,28.641 L28.028,32.164 Z M36.491,37.169 C35.256,37.169 34.385,36.363 34.385,35.102 C34.385,33.568 35.685,32.775 38.662,32.45 C38.649,31.618 38.35,30.89 37.297,30.89 C36.543,30.89 35.841,31.228 35.23,31.618 L34.671,30.604 C35.412,30.136 36.413,29.668 37.557,29.668 C39.338,29.668 40.157,30.799 40.157,32.697 L40.157,37 L38.935,37 L38.805,36.181 L38.766,36.181 C38.116,36.74 37.349,37.169 36.491,37.169 Z M36.946,35.986 C37.57,35.986 38.077,35.687 38.662,35.154 L38.662,33.399 C36.543,33.659 35.828,34.192 35.828,34.998 C35.828,35.7 36.309,35.986 36.946,35.986 Z M44.213,37.169 C43.225,37.169 42.211,36.753 41.522,36.181 L42.224,35.219 C42.861,35.726 43.485,36.038 44.252,36.038 C45.11,36.038 45.513,35.622 45.513,35.076 C45.513,34.426 44.707,34.14 43.927,33.841 C42.978,33.477 41.886,32.97 41.886,31.761 C41.886,30.565 42.848,29.668 44.421,29.668 C45.383,29.668 46.163,30.058 46.748,30.513 L46.046,31.436 C45.552,31.072 45.045,30.812 44.447,30.812 C43.667,30.812 43.303,31.202 43.303,31.696 C43.303,32.307 44.044,32.541 44.824,32.827 C45.825,33.204 46.93,33.646 46.93,34.998 C46.93,36.194 45.981,37.169 44.213,37.169 Z M50.453,37.169 C49.465,37.169 48.451,36.753 47.762,36.181 L48.464,35.219 C49.101,35.726 49.725,36.038 50.492,36.038 C51.35,36.038 51.753,35.622 51.753,35.076 C51.753,34.426 50.947,34.14 50.167,33.841 C49.218,33.477 48.126,32.97 48.126,31.761 C48.126,30.565 49.088,29.668 50.661,29.668 C51.623,29.668 52.403,30.058 52.988,30.513 L52.286,31.436 C51.792,31.072 51.285,30.812 50.687,30.812 C49.907,30.812 49.543,31.202 49.543,31.696 C49.543,32.307 50.284,32.541 51.064,32.827 C52.065,33.204 53.17,33.646 53.17,34.998 C53.17,36.194 52.221,37.169 50.453,37.169 Z" id="OnePass" fill="#4A4A4A" opacity="0.699999988"></path>
            </g>
            <g id="Group-11-Copy-6">
                <g id="Icon-Copy-2" opacity="0.300000012">
                    <rect id="Rectangle-3" x="0" y="0" width="48" height="48"></rect>
                </g>
                <g id="Group-8-Copy-9" transform="translate(3.200000, 3.200000)">
                    <mask id="mask-2" fill="white">
                        <use xlink:href="#path-1"></use>
                    </mask>
                    <use id="Oval-15" fill="#927FFF" xlink:href="#path-1"></use>
                    <circle id="Oval-4" fill="#653EE6" mask="url(#mask-2)" cx="20.8" cy="20.8" r="13"></circle>
                    <g id="Group-18" mask="url(#mask-2)" fill="#F9FCFF">
                        <g transform="translate(17.800000, 21.200000) rotate(-270.000000) translate(-17.800000, -21.200000) translate(4.800000, 5.200000)" id="Combined-Shape">
                            <path d="M25.272482,27.4809018 C25.9111785,28.0234229 18.395532,31.6632108 13.0333333,31.6632108 C7.67113463,31.6632108 0.141946834,28.1119368 0.730144882,27.6207662 C6.35431533,22.924342 9.73867293,16.0345915 9.9854919,8.66666667 L7.4,8.66666667 L13.0333333,2.30926389e-14 L18.6666667,8.66666667 L16.1832042,8.66666667 C16.4275842,15.9617852 19.7478019,22.7881328 25.272482,27.4809018 Z"></path>
                        </g>
                    </g>
                    <path d="M20.8,38.1333333 C30.3729357,38.1333333 38.1333333,30.3729357 38.1333333,20.8 C38.1333333,11.2270643 30.3729357,3.46666667 20.8,3.46666667 C11.2270643,3.46666667 3.46666667,11.2270643 3.46666667,20.8 C3.46666667,30.3729357 11.2270643,38.1333333 20.8,38.1333333 Z M20.8,41.6 C9.3124772,41.6 0,32.2875228 0,20.8 C0,9.3124772 9.3124772,0 20.8,0 C32.2875228,0 41.6,9.3124772 41.6,20.8 C41.6,32.2875228 32.2875228,41.6 20.8,41.6 Z" id="Oval-16" fill="#653EE6" fill-rule="nonzero" mask="url(#mask-2)"></path>
                </g>
            </g>
        </g>
    </g>
</svg>