<?xml version="1.0" encoding="UTF-8"?>
<svg width="149px" height="42px" viewBox="0 0 149 42" version="1.1" xmlns="http://www.w3.org/2000/svg" xmlns:xlink="http://www.w3.org/1999/xlink">
    <!-- Generator: Sketch 50.2 (55047) - http://www.bohemiancoding.com/sketch -->
    <title>漏洞监控-normal</title>
    <desc>Created with Sketch.</desc>
    <defs>
        <circle id="path-1" cx="20.8" cy="20.8" r="20.8"></circle>
    </defs>
    <g id="Page-1" stroke="none" stroke-width="1" fill="none" fill-rule="evenodd">
        <g id="-" transform="translate(-488.000000, -1451.000000)">
            <g id="漏洞监控-normal" transform="translate(485.000000, 1448.000000)">
                <g id="文字" transform="translate(58.000000, 4.000000)">
                    <path d="M86.9979048,0.395893754 C86.9979048,0.171197299 87.1738874,0 87.420263,0 L88.1476576,0 C88.3471045,0 88.4878906,0.117698143 88.5817479,0.288895442 L89.9896084,2.69635746 L91.4092011,0.288895442 C91.5030585,0.117698143 91.6438445,0 91.8432915,0 L92.5589539,0 C92.8170616,0 93.0047764,0.160497468 93.0047764,0.395893754 L93.0047764,4.00173686 L91.9958097,4.00173686 L91.9958097,1.10208261 L90.6114135,3.43464581 C90.5292883,3.56304379 90.4236988,3.64864244 90.2829127,3.64864244 L89.7197685,3.64864244 C89.5672503,3.64864244 89.4616607,3.55234395 89.3795355,3.43464581 L87.9951394,1.10208261 L87.9951394,4.00173686 L86.9979048,4.00173686 L86.9979048,0.395893754 Z M86.0945277,0 L86.0945277,0.71688869 L84.5810776,0.71688869 L84.5810776,4.00173686 L83.5721109,4.00173686 L83.5721109,0.71688869 L82,0.71688869 L82.3050364,0 L86.0945277,0 Z" id="™" fill="#666666" opacity="0.699999988"></path>
                    <path d="M6.3623274,4.12092054 L4.90169344,6.06176292 C4.18138081,5.48151107 2.68072948,4.54110291 1.62026921,3.90082501 L3.02087712,2.18007816 C4.04132002,2.72031264 5.58198871,3.58068606 6.3623274,4.12092054 Z M5.82209292,9.50325662 L4.40147634,11.4240903 C3.66115502,10.8638472 2.08046895,9.92343899 1,9.32317846 L2.36059053,7.60243161 C3.4210508,8.14266609 5.02174555,8.96302215 5.82209292,9.50325662 Z M3.72118107,12.8246982 L5.64201476,14.0852453 C4.9617195,16.2661919 4.08133739,18.5871993 3.26098133,20.5480504 L1.10004342,19.3275206 C1.86037343,17.7468346 2.94084238,15.185723 3.72118107,12.8246982 Z M12.7851151,11.7842466 L12.7851151,10.7237864 L8.76336952,10.7237864 C8.74336083,11.063934 8.72335215,11.4240903 8.70334347,11.7842466 L12.7851151,11.7842466 Z M17.2470517,13.5250022 L14.7059488,13.5250022 L14.7059488,14.865584 L15.5062961,13.9251759 C16.0665393,14.2653235 16.846878,14.7455319 17.2470517,15.0856795 L17.2470517,13.5250022 Z M10.3040382,15.0056448 L11.204429,13.9651932 C11.7046461,14.2453148 12.3649327,14.6855059 12.7851151,15.0056448 L12.7851151,13.5250022 L10.3040382,13.5250022 L10.3040382,15.0056448 Z M10.3040382,17.4467043 L11.144403,16.5663222 C11.6446201,16.9264785 12.3649327,17.466713 12.7851151,17.8268693 L12.7851151,15.3257838 L11.964759,16.3662353 C11.584594,16.006079 10.8642814,15.4458359 10.3040382,15.0656709 L10.3040382,17.4467043 Z M16.5867651,4.66115502 L8.80338689,4.66115502 L8.80338689,5.92170213 L16.5867651,5.92170213 L16.5867651,4.66115502 Z M19.3679722,10.7237864 L14.7059488,10.7237864 L14.7059488,11.7842466 L19.2079027,11.7842466 L19.2079027,18.9473556 C19.2079027,19.807729 19.0478333,20.2079027 18.5276075,20.4680156 C18.0073817,20.7281285 17.227043,20.7481372 16.2066001,20.7481372 C16.1265653,20.2679288 15.9264785,19.6276509 15.706383,19.1874598 C16.2266088,19.2074685 16.8068606,19.2074685 16.9669301,19.2074685 C17.1670169,19.1874598 17.2470517,19.1274338 17.2470517,18.9473556 L17.2470517,15.1256969 L16.3666696,16.2862006 C15.9865046,15.946053 15.2661919,15.4258272 14.7059488,15.0256535 L14.7059488,17.1265653 L15.386244,16.386244 C15.9664959,16.766409 16.7068172,17.3066435 17.1069909,17.6467911 L16.1265653,18.8072948 C15.8264351,18.4871559 15.2261746,18.0269561 14.7059488,17.6267825 L14.7059488,20.6681025 L12.7851151,20.6681025 L12.7851151,18.0669735 L11.8847243,19.0874164 C11.5445766,18.7272601 10.8642814,18.1870256 10.3040382,17.7268259 L10.3040382,20.7281285 L8.4032132,20.7281285 L8.4032132,14.5454451 C8.06306557,16.766409 7.48281372,18.9673643 6.46237082,20.6881112 C6.06219713,20.3079462 5.10178029,19.6876769 4.56154581,19.4675814 C6.46237082,16.2862006 6.6224403,11.7042119 6.6224403,8.44279635 L6.6224403,2.76033 L18.8677551,2.76033 L18.8677551,7.82252714 L8.80338689,7.82252714 L8.80338689,8.86297872 L19.3679722,8.86297872 L19.3679722,10.7237864 Z M23.4297351,20.4480069 L21.3088146,18.8473122 C22.2492227,17.3666696 23.629822,14.9656274 24.6702736,12.7046461 L26.5310812,14.2853322 C25.6106817,16.3462267 24.4901954,18.5271733 23.4297351,20.4480069 Z M25.7307338,9.54327399 L24.4701867,11.5241337 C23.6498307,10.9238732 21.9891099,10.0434911 20.8085975,9.46323925 L22.0091185,7.68246635 C23.1896309,8.14266609 24.8903691,8.94301346 25.7307338,9.54327399 Z M33.6341641,11.5441424 L31.8133739,11.5441424 L31.8133739,14.3653669 L33.6341641,14.3653669 L33.6341641,11.5441424 Z M35.4949718,16.3462267 L31.8133739,16.3462267 L31.8133739,17.5067304 L29.9925836,17.5067304 L29.9925836,9.58329136 L35.4949718,9.58329136 L35.4949718,16.3462267 Z M35.8751368,6.30186713 L35.8751368,8.26271819 L29.6724446,8.26271819 L29.6724446,6.30186713 L35.8751368,6.30186713 Z M21.728997,4.10091185 L23.0495701,2.36015632 C24.1500478,2.86037343 25.7907599,3.72074685 26.6111159,4.28099001 L25.2505254,6.24184108 C24.4701867,5.62157186 22.8895006,4.70117238 21.728997,4.10091185 Z M38.9564742,2.80034737 L38.9564742,18.0469648 C38.9564742,19.2474859 38.7563873,19.9277812 38.0360747,20.3279548 C37.3357707,20.7281285 36.3153278,20.7881546 34.7746591,20.7881546 C34.7146331,20.127868 34.3944941,19.0273904 34.0743552,18.3871125 C34.974746,18.4471385 35.9551715,18.4271298 36.2753105,18.4271298 C36.5754407,18.4271298 36.6754841,18.3270864 36.6754841,18.0069475 L36.6754841,4.9412766 L28.8320799,4.9412766 L28.8320799,20.7681459 L26.6111159,20.7681459 L26.6111159,2.80034737 L38.9564742,2.80034737 Z M59.1052193,6.90212766 L52.8825184,6.90212766 C52.2222319,8.3827703 51.4819105,9.72335215 50.6215371,10.743795 C50.2213634,10.3436214 49.2409379,9.64331741 48.7007034,9.32317846 C50.2613808,7.66245766 51.4218845,4.92126791 52.0421537,2.10004342 L54.3231437,2.56024316 C54.1430656,3.30056448 53.9429787,4.02087712 53.7228832,4.74118975 L59.1052193,4.74118975 L59.1052193,6.90212766 Z M52.8224924,8.6428832 L54.6432827,7.42235345 C55.8838211,8.34275293 57.4044811,9.72335215 58.1448024,10.6637603 L56.20396,12.0443595 C55.5436735,11.1039514 54.0430221,9.6633261 52.8224924,8.6428832 Z M48.6406774,2.10004342 L48.6406774,11.8042553 L46.2796526,11.8042553 L46.2796526,2.10004342 L48.6406774,2.10004342 Z M44.6389405,2.76033 L44.6389405,11.2640208 L42.3379418,11.2640208 L42.3379418,2.76033 L44.6389405,2.76033 Z M45.3392445,14.6654972 L45.3392445,18.1870256 L47.1000087,18.1870256 L47.1000087,14.6654972 L45.3392445,14.6654972 Z M51.0817369,14.6654972 L49.2809553,14.6654972 L49.2809553,18.1870256 L51.0817369,18.1870256 L51.0817369,14.6654972 Z M55.0434564,14.6654972 L53.2426748,14.6654972 L53.2426748,18.1870256 L55.0434564,18.1870256 L55.0434564,14.6654972 Z M57.3844724,18.1870256 L59.2852974,18.1870256 L59.2852974,20.3079462 L41.0773947,20.3079462 L41.0773947,18.1870256 L43.1182805,18.1870256 L43.1182805,12.6646287 L57.3844724,12.6646287 L57.3844724,18.1870256 Z M69.4096917,6.38190187 L69.4096917,8.02261398 L67.2687625,8.02261398 L67.2687625,4.36102475 L72.0708467,4.36102475 C71.8707599,3.74075554 71.5906383,3.08046895 71.3505341,2.52022579 L73.6315241,2 C73.9916804,2.72031264 74.3918541,3.6607208 74.6319583,4.36102475 L79.153921,4.36102475 L79.153921,7.94257924 L76.9129483,7.94257924 L76.9129483,6.38190187 L69.4096917,6.38190187 Z M73.4914633,8.54283977 L74.9120799,7.14223187 C76.1126009,8.10264872 77.9333912,9.48324794 78.8537907,10.3236127 L77.3531394,11.9042987 C76.5327833,11.0239166 74.7720191,9.56328267 73.4914633,8.54283977 Z M66.7085193,10.743795 L67.0886843,12.8246982 C66.4484064,13.0447937 65.7681111,13.3049066 65.1078246,13.5450109 L65.1078246,17.9469214 C65.1078246,19.047399 64.9277464,19.6276509 64.3074772,19.9878072 C63.7072167,20.3879809 62.8268346,20.4680156 61.5662874,20.4480069 C61.5062614,19.8677551 61.2261398,18.8873296 60.9460182,18.2670604 C61.6663309,18.287069 62.3466261,18.287069 62.5867303,18.2670604 C62.8468432,18.2670604 62.926878,18.1870256 62.926878,17.9269127 L62.926878,14.3253495 L61.1060877,14.9656274 L60.645888,12.6846374 C61.2861659,12.5045593 62.0665045,12.2644551 62.926878,11.9843335 L62.926878,7.80251845 L60.9060009,7.80251845 L60.9060009,5.62157186 L62.926878,5.62157186 L62.926878,2.06002605 L65.1078246,2.06002605 L65.1078246,5.62157186 L66.788554,5.62157186 L66.788554,7.80251845 L65.1078246,7.80251845 L65.1078246,11.2640208 L66.7085193,10.743795 Z M74.2317846,18.0469648 L79.4540512,18.0469648 L79.4540512,20.127868 L66.6084759,20.127868 L66.6084759,18.0469648 L71.8507512,18.0469648 L71.8507512,14.0652366 L68.1491446,14.0652366 L68.1491446,11.9843335 L68.5493183,11.9843335 C68.249188,11.4841164 67.6289188,10.6237429 67.2887712,10.2235693 C68.5893356,9.48324794 70.0099522,8.36276162 70.8703257,7.24227529 L72.8912028,8.0026053 C71.8307425,9.44323057 70.2300478,11.0039079 68.7894225,11.9843335 L77.9934173,11.9843335 L77.9934173,14.0652366 L74.2317846,14.0652366 L74.2317846,18.0469648 Z" id="漏洞监控" fill="#FF6300"></path>
                    <path d="M3.99273296,38.1807972 C2.67916283,38.1807972 1.45663222,37.6605714 0.585254017,36.7761876 L1.46963786,35.735736 C2.15893704,36.4250352 3.09534347,36.8672271 4.01874425,36.8672271 C5.17624663,36.8672271 5.82652888,36.32099 5.82652888,35.51464 C5.82652888,34.6432618 5.17624663,34.3701433 4.29186279,33.9799739 L2.96528702,33.4077256 C2.04188624,33.0175562 1.0144403,32.2892401 1.0144403,30.8976361 C1.0144403,29.3889813 2.34101607,28.2574902 4.16180634,28.2574902 C5.28029179,28.2574902 6.33374902,28.7256934 7.06206513,29.4670152 L6.2687208,30.4294329 C5.67046114,29.8962015 5.00717325,29.5710604 4.16180634,29.5710604 C3.18638298,29.5710604 2.54910638,30.0392636 2.54910638,30.8065966 C2.54910638,31.6259522 3.31643943,31.9380877 4.09677812,32.2502232 L5.41034824,32.8094659 C6.54183934,33.2906748 7.36119496,33.9929796 7.36119496,35.3975892 C7.36119496,36.9322553 6.08664177,38.1807972 3.99273296,38.1807972 Z M11.9521876,38.1807972 C10.0143465,38.1807972 8.531703,36.8152045 8.531703,34.4481772 C8.531703,32.0551385 10.1834199,30.6765402 12.0692384,30.6765402 C12.9796335,30.6765402 13.6429214,31.0406982 14.1631472,31.4958958 L13.4218254,32.4713191 C13.0316561,32.1201667 12.6284811,31.9120764 12.1342666,31.9120764 C10.9377473,31.9120764 10.0793747,32.9265167 10.0793747,34.4481772 C10.0793747,35.956832 10.8987304,36.9582666 12.0952497,36.9582666 C12.6935093,36.9582666 13.2267408,36.6721424 13.6559271,36.3079844 L14.2671924,37.2964134 C13.6169101,37.8816674 12.7715432,38.1807972 11.9521876,38.1807972 Z M17.4535753,38.1807972 C16.2180391,38.1807972 15.3466609,37.3744472 15.3466609,36.1128997 C15.3466609,34.5782336 16.6472254,33.7848893 19.625518,33.4597482 C19.6125124,32.6273869 19.3133825,31.8990708 18.2599253,31.8990708 C17.5055979,31.8990708 16.8032931,32.2372175 16.1920278,32.6273869 L15.6327851,31.6129466 C16.3741068,31.1447434 17.3755415,30.6765402 18.5200382,30.6765402 C20.3018116,30.6765402 21.1211672,31.8080313 21.1211672,33.7068554 L21.1211672,38.0117238 L19.8986366,38.0117238 L19.7685801,37.1923682 L19.7295632,37.1923682 C19.0792809,37.7516109 18.3119479,38.1807972 17.4535753,38.1807972 Z M17.9087729,36.9972835 C18.5330439,36.9972835 19.040264,36.6981537 19.625518,36.1649223 L19.625518,34.4091602 C17.5055979,34.6692731 16.7902875,35.2025046 16.7902875,36.0088545 C16.7902875,36.7111594 17.2714963,36.9972835 17.9087729,36.9972835 Z M23.2410873,38.0117238 L23.2410873,30.8586192 L24.4636179,30.8586192 L24.5806687,31.8470482 L24.6196856,31.8470482 C25.2829735,31.2097716 26.0112896,30.6765402 26.986713,30.6765402 C28.5083734,30.6765402 29.184667,31.6909805 29.184667,33.5117707 L29.184667,38.0117238 L27.6890178,38.0117238 L27.6890178,33.6938498 C27.6890178,32.4583135 27.3248597,31.964099 26.4794928,31.964099 C25.816205,31.964099 25.3610074,32.3022458 24.7237308,32.9395224 L24.7237308,38.0117238 L23.2410873,38.0117238 Z M31.3566096,38.0117238 L31.3566096,30.8586192 L32.5791403,30.8586192 L32.6961911,31.8470482 L32.735208,31.8470482 C33.3984959,31.2097716 34.126812,30.6765402 35.1022353,30.6765402 C36.6238958,30.6765402 37.3001893,31.6909805 37.3001893,33.5117707 L37.3001893,38.0117238 L35.8045402,38.0117238 L35.8045402,33.6938498 C35.8045402,32.4583135 35.4403821,31.964099 34.5950152,31.964099 C33.9317273,31.964099 33.4765297,32.3022458 32.8392531,32.9395224 L32.8392531,38.0117238 L31.3566096,38.0117238 Z M42.4504247,38.1807972 C40.5125836,38.1807972 38.9649119,36.8021989 38.9649119,34.4481772 C38.9649119,32.1201667 40.5516005,30.6765402 42.2293287,30.6765402 C44.1281528,30.6765402 45.1425931,32.0421329 45.1425931,34.0710135 C45.1425931,34.3571376 45.1165818,34.6562675 45.0775649,34.8253409 L40.4345497,34.8253409 C40.5516005,36.1909336 41.4099731,37.0102892 42.6455093,37.0102892 C43.2827859,37.0102892 43.829023,36.8152045 44.3492488,36.4770578 L44.8694746,37.4264698 C44.2061867,37.8686617 43.3868311,38.1807972 42.4504247,38.1807972 Z M40.4215441,33.7978949 L43.8550343,33.7978949 C43.8550343,32.5623587 43.2957916,31.8470482 42.25534,31.8470482 C41.3579505,31.8470482 40.5646062,32.5363474 40.4215441,33.7978949 Z M46.8203213,38.0117238 L46.8203213,30.8586192 L48.0428519,30.8586192 L48.1599027,32.146178 L48.1989197,32.146178 C48.7061398,31.2227772 49.4604672,30.6765402 50.2278003,30.6765402 C50.5789527,30.6765402 50.8130543,30.7285627 51.0341502,30.8326079 L50.7610317,32.1331724 C50.5139244,32.0551385 50.3318454,32.0161216 50.0457212,32.0161216 C49.4604672,32.0161216 48.7581624,32.4192966 48.3029648,33.5507877 L48.3029648,38.0117238 L46.8203213,38.0117238 Z" id="Scanner" fill="#4A4A4A" opacity="0.699999988"></path>
                </g>
                <g id="icon" transform="translate(24.000000, 24.000000) rotate(-180.000000) translate(-24.000000, -24.000000) ">
                    <g id="Icon-Copy-2" opacity="0.300000012">
                        <rect id="Rectangle-3" x="0" y="0" width="48" height="48"></rect>
                    </g>
                    <g id="Group-8-Copy-9" transform="translate(3.200000, 3.200000)">
                        <mask id="mask-2" fill="white">
                            <use xlink:href="#path-1"></use>
                        </mask>
                        <use id="Oval-15" fill="#FFD0B2" xlink:href="#path-1"></use>
                        <path d="M20.8,38.1333333 C30.3729357,38.1333333 38.1333333,30.3729357 38.1333333,20.8 C38.1333333,11.2270643 30.3729357,3.46666667 20.8,3.46666667 C11.2270643,3.46666667 3.46666667,11.2270643 3.46666667,20.8 C3.46666667,30.3729357 11.2270643,38.1333333 20.8,38.1333333 Z M20.8,41.6 C9.3124772,41.6 0,32.2875228 0,20.8 C0,9.3124772 9.3124772,0 20.8,0 C32.2875228,0 41.6,9.3124772 41.6,20.8 C41.6,32.2875228 32.2875228,41.6 20.8,41.6 Z" id="Oval-16" fill="#FF6300" fill-rule="nonzero" mask="url(#mask-2)"></path>
                        <path d="M20.8,30.4 C26.1019336,30.4 30.4,26.1019336 30.4,20.8 C30.4,15.4980664 26.1019336,11.2 20.8,11.2 C15.4980664,11.2 11.2,15.4980664 11.2,20.8 C11.2,26.1019336 15.4980664,30.4 20.8,30.4 Z M20.8,33.6 C13.7307552,33.6 8,27.8692448 8,20.8 C8,13.7307552 13.7307552,8 20.8,8 C27.8692448,8 33.6,13.7307552 33.6,20.8 C33.6,27.8692448 27.8692448,33.6 20.8,33.6 Z" id="Oval-16-Copy" fill="#FF6300" fill-rule="nonzero" mask="url(#mask-2)"></path>
                        <path d="M20.8,30.4 C26.1019336,30.4 30.4,26.1019336 30.4,20.8 C30.4,15.4980664 26.1019336,11.2 20.8,11.2 C15.4980664,11.2 11.2,15.4980664 11.2,20.8 C11.2,26.1019336 15.4980664,30.4 20.8,30.4 Z" id="Oval-16-Copy-2" fill="#FFFFFF" fill-rule="nonzero" mask="url(#mask-2)"></path>
                        <g id="Group-18" mask="url(#mask-2)">
                            <g transform="translate(13.300000, 20.800000) rotate(-270.000000) translate(-13.300000, -20.800000) translate(1.300000, 9.300000)" id="Group-28">
                                <g transform="translate(-0.000000, -0.000000)">
                                    <path d="M13.9990974,6.4988717 L23.7887386,18.7359233 L12,22.2996353 L0.155164205,18.8060447 L10.0009026,6.4988717 C9.26881535,5.91244109 8.8,5.01096939 8.8,4 C8.8,2.2326888 10.2326888,0.8 12,0.8 C13.7673112,0.8 15.2,2.2326888 15.2,4 C15.2,5.01096939 14.7311847,5.91244109 13.9990974,6.4988717 Z" id="Combined-Shape" fill="#FF6300"></path>
                                </g>
                            </g>
                        </g>
                    </g>
                </g>
            </g>
        </g>
    </g>
</svg>