<?xml version="1.0" encoding="UTF-8"?>
<svg width="149px" height="48px" viewBox="0 0 149 48" version="1.1" xmlns="http://www.w3.org/2000/svg" xmlns:xlink="http://www.w3.org/1999/xlink">
    <!-- Generator: Sketch 49 (51002) - http://www.bohemiancoding.com/sketch -->
    <title>sensebot</title>
    <desc>Created with Sketch.</desc>
    <defs>
        <polygon id="path-1" points="21.0503529 2.4 1.89552941 13.8260159 1.89552941 33.9854357 21.0503529 45.6 40.2051765 33.9854357 40.2051765 13.8260159"></polygon>
    </defs>
    <g id="final" stroke="none" stroke-width="1" fill="none" fill-rule="evenodd">
        <g id="Group-24">
            <g id="Group-5" transform="translate(56.000000, 4.000000)">
                <g id="Group-3-Copy">
                    <g id="Group-6" transform="translate(0.000000, 1.000000)">
                        <path d="M18.66,2.2 L18.66,4.46 L8.94,4.46 L8.94,2.2 L18.66,2.2 Z M5.1,1.06 L7.4,2 C5.96,3.88 3.8,5.94 1.9,7.26 C1.6,6.74 1,5.78 0.58,5.32 C2.24,4.26 4.14,2.46 5.1,1.06 Z M5.86,5.38 L8.14,6.26 C7.54,7.28 6.8,8.32 6,9.32 L6,19.76 L3.62,19.76 L3.62,11.94 C3.06,12.48 2.52,12.98 1.98,13.42 C1.64,12.94 0.84,11.86 0.36,11.36 C2.4,9.96 4.58,7.64 5.86,5.38 Z M19.16,7.7 L19.16,9.96 L16.42,9.96 L16.42,16.98 C16.42,18.26 16.18,18.92 15.3,19.28 C14.46,19.64 13.18,19.68 11.4,19.68 C11.3,18.98 11,17.94 10.68,17.26 C11.82,17.32 13.14,17.32 13.5,17.3 C13.86,17.3 14,17.22 14,16.92 L14,9.96 L8.1,9.96 L8.1,7.7 L19.16,7.7 Z M26.72,4.54 L24.52,5.46 C24.2,4.66 23.36,3.34 22.66,2.4 L24.74,1.54 C25.48,2.44 26.36,3.68 26.72,4.54 Z M30,5.7 L38.14,5.7 C38.14,5.7 38.12,6.52 38.1,6.84 C37.84,14.52 37.58,17.4 36.8,18.38 C36.24,19.12 35.66,19.36 34.82,19.48 C34.06,19.6 32.82,19.58 31.62,19.54 C31.58,18.8 31.24,17.74 30.8,17.04 C32.02,17.14 33.16,17.14 33.7,17.14 C34.1,17.14 34.32,17.08 34.56,16.82 C35.1,16.26 35.36,13.8 35.56,8.12 L29.76,8.12 C29.2,11.94 27.54,16.26 22.82,19.36 C22.44,18.82 21.52,17.98 20.92,17.6 C25.1,14.98 26.68,11.38 27.28,8.12 L21.42,8.12 L21.42,5.7 L27.56,5.7 C27.6,5.02 27.62,4.38 27.62,3.78 L27.62,1.08 L30.04,1.08 L30.04,3.8 C30.04,4.4 30.02,5.02 30,5.7 Z M33.98,13.62 L31.84,14.68 C31.42,13.66 30.42,12.08 29.54,10.9 L31.54,9.98 C32.44,11.08 33.5,12.62 33.98,13.62 Z M45.4,13.56 L45.58,15.32 C43.88,15.72 42.12,16.14 40.64,16.48 L40.26,14.64 C41.6,14.4 43.48,13.98 45.4,13.56 Z M50.7,7.16 L56,7.16 C54.98,6.26 54.02,5.3 53.18,4.32 C52.44,5.36 51.58,6.3 50.7,7.16 Z M50.38,9.16 L50.38,7.46 C49.72,8.04 49.08,8.56 48.4,9.02 C48.14,8.56 47.44,7.56 47.04,7.1 C46.96,8.26 46.86,9.38 46.76,10.28 L48.3,10.28 C48.3,10.28 48.28,10.88 48.26,11.14 C48.02,16.1 47.76,18.06 47.16,18.74 C46.74,19.26 46.28,19.42 45.64,19.5 C45.12,19.56 44.16,19.56 43.2,19.52 C43.18,18.94 42.96,18.16 42.62,17.62 C43.5,17.7 44.34,17.72 44.7,17.72 C45.04,17.72 45.2,17.68 45.4,17.48 C45.76,17.08 46,15.64 46.18,12.14 L41.02,12.14 C41.26,10.34 41.46,7.38 41.54,5.12 L43.56,5.24 C43.48,6.82 43.34,8.7 43.2,10.3 L44.76,10.3 C44.98,8.52 45.16,6.06 45.28,3.78 L40.76,3.78 L40.76,1.78 L47.36,1.78 C47.28,3.42 47.16,5.34 47.02,7.1 C49.36,5.68 51.58,3.36 52.82,0.82 L54.88,1.54 C54.72,1.86 54.54,2.18 54.36,2.5 C55.7,4.02 57.66,5.66 59.44,6.62 C59.04,7.22 58.58,8.32 58.36,8.98 C57.76,8.58 57.16,8.14 56.54,7.62 L56.54,9.16 L50.38,9.16 Z M55.12,14.9 L53.22,15.18 C53.12,13.9 52.78,11.94 52.48,10.46 L54.28,10.2 C54.64,11.7 55,13.6 55.12,14.9 Z M52,15.2 L50.08,15.74 C49.94,14.46 49.46,12.5 49.04,11.02 L50.84,10.54 C51.34,12.02 51.8,13.94 52,15.2 Z M56.78,10.32 L58.94,10.78 C58.22,12.8 57.34,15.14 56.52,16.86 L58.9,16.86 L58.9,18.86 L48.54,18.86 L48.54,16.86 L54.52,16.86 C55.36,15.04 56.32,12.34 56.78,10.32 Z M66.16,4.38 L64.52,6.02 C63.88,5.14 62.44,3.78 61.38,2.82 L62.9,1.36 C64,2.26 65.46,3.52 66.16,4.38 Z M65.2,14.42 L66.78,13.08 C67,13.76 67.44,14.72 67.74,15.18 C64.1,18.32 63.44,18.9 63.08,19.4 C62.82,18.94 62.04,18.16 61.66,17.86 C62.14,17.42 62.88,16.46 62.88,15.24 L62.88,9.48 L60.54,9.48 L60.54,7.2 L65.2,7.2 L65.2,14.42 Z M75,16.78 L79.04,16.78 L79.04,19 L66.82,19 L66.82,16.78 L68.3,16.78 L68.3,7.74 L70.66,7.74 L70.66,16.78 L72.56,16.78 L72.56,4.54 L67.34,4.54 L67.34,2.32 L78.64,2.32 L78.64,4.54 L75,4.54 L75,9.02 L78.26,9.02 L78.26,11.24 L75,11.24 L75,16.78 Z" id="行为验证" fill="#00BF9C"></path>
                        <path d="M3.991,37.169 C2.678,37.169 1.456,36.649 0.585,35.765 L1.469,34.725 C2.158,35.414 3.094,35.856 4.017,35.856 C5.174,35.856 5.824,35.31 5.824,34.504 C5.824,33.633 5.174,33.36 4.29,32.97 L2.964,32.398 C2.041,32.008 1.014,31.28 1.014,29.889 C1.014,28.381 2.34,27.25 4.16,27.25 C5.278,27.25 6.331,27.718 7.059,28.459 L6.266,29.421 C5.668,28.888 5.005,28.563 4.16,28.563 C3.185,28.563 2.548,29.031 2.548,29.798 C2.548,30.617 3.315,30.929 4.095,31.241 L5.408,31.8 C6.539,32.281 7.358,32.983 7.358,34.387 C7.358,35.921 6.084,37.169 3.991,37.169 Z M12.012,37.169 C10.075,37.169 8.528,35.791 8.528,33.438 C8.528,31.111 10.114,29.668 11.791,29.668 C13.689,29.668 14.703,31.033 14.703,33.061 C14.703,33.347 14.677,33.646 14.638,33.815 L9.997,33.815 C10.114,35.18 10.972,35.999 12.207,35.999 C12.844,35.999 13.39,35.804 13.91,35.466 L14.43,36.415 C13.767,36.857 12.948,37.169 12.012,37.169 Z M9.984,32.788 L13.416,32.788 C13.416,31.553 12.857,30.838 11.817,30.838 C10.92,30.838 10.127,31.527 9.984,32.788 Z M16.38,37 L16.38,29.85 L17.602,29.85 L17.719,30.838 L17.758,30.838 C18.421,30.201 19.149,29.668 20.124,29.668 C21.645,29.668 22.321,30.682 22.321,32.502 L22.321,37 L20.826,37 L20.826,32.684 C20.826,31.449 20.462,30.955 19.617,30.955 C18.954,30.955 18.499,31.293 17.862,31.93 L17.862,37 L16.38,37 Z M26.429,37.169 C25.441,37.169 24.427,36.753 23.738,36.181 L24.44,35.219 C25.077,35.726 25.701,36.038 26.468,36.038 C27.326,36.038 27.729,35.622 27.729,35.076 C27.729,34.426 26.923,34.14 26.143,33.841 C25.194,33.477 24.102,32.97 24.102,31.761 C24.102,30.565 25.064,29.668 26.637,29.668 C27.599,29.668 28.379,30.058 28.964,30.513 L28.262,31.436 C27.768,31.072 27.261,30.812 26.663,30.812 C25.883,30.812 25.519,31.202 25.519,31.696 C25.519,32.307 26.26,32.541 27.04,32.827 C28.041,33.204 29.146,33.646 29.146,34.998 C29.146,36.194 28.197,37.169 26.429,37.169 Z M33.709,37.169 C31.772,37.169 30.225,35.791 30.225,33.438 C30.225,31.111 31.811,29.668 33.488,29.668 C35.386,29.668 36.4,31.033 36.4,33.061 C36.4,33.347 36.374,33.646 36.335,33.815 L31.694,33.815 C31.811,35.18 32.669,35.999 33.904,35.999 C34.541,35.999 35.087,35.804 35.607,35.466 L36.127,36.415 C35.464,36.857 34.645,37.169 33.709,37.169 Z M31.681,32.788 L35.113,32.788 C35.113,31.553 34.554,30.838 33.514,30.838 C32.617,30.838 31.824,31.527 31.681,32.788 Z M41.405,37.169 C40.755,37.169 40.04,36.844 39.429,36.259 L39.39,36.259 L39.247,37 L38.077,37 L38.077,26.639 L39.559,26.639 L39.559,29.382 L39.52,30.604 C40.131,30.071 40.898,29.668 41.652,29.668 C43.459,29.668 44.486,31.111 44.486,33.308 C44.486,35.765 43.017,37.169 41.405,37.169 Z M41.119,35.934 C42.159,35.934 42.939,35.011 42.939,33.334 C42.939,31.839 42.458,30.916 41.262,30.916 C40.703,30.916 40.157,31.202 39.559,31.787 L39.559,35.284 C40.105,35.765 40.677,35.934 41.119,35.934 Z M49.114,37.169 C47.346,37.169 45.747,35.804 45.747,33.438 C45.747,31.046 47.346,29.668 49.114,29.668 C50.882,29.668 52.481,31.046 52.481,33.438 C52.481,35.804 50.882,37.169 49.114,37.169 Z M49.114,35.947 C50.245,35.947 50.947,34.946 50.947,33.438 C50.947,31.917 50.245,30.903 49.114,30.903 C47.996,30.903 47.294,31.917 47.294,33.438 C47.294,34.946 47.996,35.947 49.114,35.947 Z M56.641,37.169 C55.029,37.169 54.47,36.168 54.47,34.66 L54.47,31.046 L53.43,31.046 L53.43,29.928 L54.535,29.85 L54.704,27.874 L55.965,27.874 L55.965,29.85 L57.824,29.85 L57.824,31.046 L55.965,31.046 L55.965,34.673 C55.965,35.531 56.264,35.973 57.005,35.973 C57.252,35.973 57.564,35.895 57.772,35.804 L58.045,36.909 C57.642,37.039 57.161,37.169 56.641,37.169 Z" id="Sensebot" fill="#4A4A4A" opacity="0.699999988"></path>
                    </g>
                    <path d="M86.9957356,0.433901919 C86.9957356,0.187633262 87.1716418,0 87.4179104,0 L88.1449893,0 C88.3443497,0 88.4850746,0.128997868 88.5788913,0.31663113 L89.9861407,2.95522388 L91.4051173,0.31663113 C91.4989339,0.128997868 91.6396588,0 91.8390192,0 L92.554371,0 C92.8123667,0 93,0.175906183 93,0.433901919 L93,4.38592751 L91.9914712,4.38592751 L91.9914712,1.20788913 L90.6076759,3.76439232 C90.5255864,3.90511727 90.4200426,3.9989339 90.2793177,3.9989339 L89.7164179,3.9989339 C89.5639659,3.9989339 89.4584222,3.89339019 89.3763326,3.76439232 L87.9925373,1.20788913 L87.9925373,4.38592751 L86.9957356,4.38592751 L86.9957356,0.433901919 Z M86.0927505,0 L86.0927505,0.785714286 L84.5799574,0.785714286 L84.5799574,4.38592751 L83.5714286,4.38592751 L83.5714286,0.785714286 L82,0.785714286 L82.3049041,0 L86.0927505,0 Z" id="™" fill="#666666" opacity="0.699999988"></path>
                </g>
            </g>
            <g id="Group-9-Copy-6">
                <g id="Icon" opacity="0.300000012">
                    <rect id="Rectangle-3" x="0" y="0" width="48" height="48"></rect>
                </g>
                <g id="Group-8" transform="translate(2.800000, 0.000000)">
                    <g id="Group-55-Copy-20">
                        <mask id="mask-2" fill="white">
                            <use xlink:href="#path-1"></use>
                        </mask>
                        <use id="Path-8" fill="#65E0CA" xlink:href="#path-1"></use>
                        <polygon id="Path-10-Copy-4" fill="#00BF9C" mask="url(#mask-2)" points="21.0515792 50.8478 40.2325755 40.7800003 40.2325755 13.8295921 21.0515792 23.7243666"></polygon>
                        <polygon id="Path-10-Copy-6" fill="#00BF9C" mask="url(#mask-2)" points="1.89798192 33.9858513 21.0506167 23.9078892 21.0513341 -3.14434239 1.89552941 6.86241779"></polygon>
                        <path d="" id="Path-9" stroke="#979797" stroke-width="0.559006788" mask="url(#mask-2)"></path>
                        <path d="M21.0503529,0.321614309 L41.9870205,12.8105154 L41.9870205,34.9924209 L21.0503529,47.6874097 L0.113685363,34.9924209 L0.113685363,12.8105154 L21.0503529,0.321614309 Z M21.0503529,4.47838569 L3.67737346,14.8415164 L3.67737346,32.9784506 L21.0503529,43.5125903 L38.4233324,32.9784506 L38.4233324,14.8415164 L21.0503529,4.47838569 Z" id="Path-8-Copy" fill="#00BF9C" fill-rule="nonzero"></path>
                    </g>
                    <g id="noun_524415_cc-copy-3" transform="translate(9.477647, 10.000000)">
                        <polygon id="Shape" fill="#FFFFFF" fill-rule="nonzero" points="22.5471927 12.7124884 20.6462622 12.7124884 20.6462622 8.5 1.95796826 8.5 1.95796826 12.7124884 0.100133926 12.7124884 0.100133926 19.494995 1.95796826 19.494995 1.95796826 24.5 20.6462622 24.5 20.6462622 19.494995 22.5471927 19.494995"></polygon>
                        <rect id="Rectangle-29-Copy" fill="#FFFFFF" x="10.5223529" y="2.4" width="1.99529412" height="4.5"></rect>
                        <rect id="Path" fill="#00BF9C" x="7.08366334" y="19.5" width="8.48" height="1.5"></rect>
                        <g id="Group-19" transform="translate(4.988235, 12.000000)" fill="#00BF9C">
                            <path d="M2.11669376,4.42865279 C0.952543002,4.42865279 0.00912229844,3.48508854 0.00912229844,2.32171827 C0.00912229844,1.15807186 0.95281926,0.214783749 2.11669376,0.214783749 C3.28056827,0.214783749 4.22426523,1.15807186 4.22426523,2.32171827 C4.22426523,3.48508854 3.28084452,4.42865279 2.11669376,4.42865279 Z" id="Path"></path>
                            <path d="M10.8121872,4.42865279 C9.64831269,4.42865279 8.70406322,3.48508854 8.70406322,2.32171827 C8.70406322,1.15807186 9.64831269,0.214783749 10.8121872,0.214783749 C11.9760617,0.214783749 12.9197587,1.15807186 12.9197587,2.32171827 C12.9197587,3.48508854 11.9760617,4.42865279 10.8121872,4.42865279 Z" id="Path"></path>
                        </g>
                        <rect id="Rectangle-path" fill="#FFFFFF" fill-rule="nonzero" x="8.0813104" y="6.5" width="6.98352941" height="2.5"></rect>
                        <path d="M11.5730751,4 C12.6750456,4 13.5683692,3.1045695 13.5683692,2 C13.5683692,0.8954305 12.6750456,0 11.5730751,0 C10.4711046,0 9.57778099,0.8954305 9.57778099,2 C9.57778099,3.1045695 10.4711046,4 11.5730751,4 Z" id="Oval" fill="#FFFFFF"></path>
                    </g>
                </g>
            </g>
        </g>
    </g>
</svg>